<svg width="219" height="72" viewBox="0 0 219 72" fill="none" xmlns="http://www.w3.org/2000/svg">
<path d="M66.3356 68.3337C64.2726 68.4504 62.4671 67.6164 60.8082 66.6301C59.1854 65.5833 57.7123 64.3209 56.4292 62.8776C53.861 60.0077 51.7331 56.7724 50.1152 53.2775C49.2976 51.534 48.593 49.7397 48.0057 47.9058L46.312 42.6342L42.9261 32.1126C42.6474 31.2411 42.7263 30.2946 43.1455 29.4813C43.5647 28.6679 44.2898 28.0545 45.1612 27.7758C46.0327 27.4971 46.9792 27.576 47.7926 27.9952C48.6059 28.4143 49.2193 29.1394 49.498 30.0109C49.5415 30.1472 49.5767 30.2859 49.6034 30.4264L51.6622 41.2826L52.681 46.6893C52.9681 48.424 53.3595 50.1397 53.8533 51.8272C54.8393 55.2233 56.3243 58.4541 58.2597 61.4138C59.2147 62.8935 60.3685 64.2349 61.6888 65.4003C62.3526 65.9696 63.0739 66.4682 63.841 66.8881C64.5906 67.3021 65.4148 67.5636 66.266 67.6575L66.3341 67.6624C66.4075 67.6811 66.4725 67.7238 66.5189 67.7838C66.5652 67.8437 66.5901 67.9174 66.5897 67.9932C66.5893 68.069 66.5635 68.1424 66.5166 68.2018C66.4696 68.2612 66.4041 68.3033 66.3305 68.3211L66.3356 68.3337Z" fill="#E7CF7F"/>
<path d="M60.8254 15.3874C61.344 15.3717 61.9802 15.3295 62.5677 15.2671C63.1551 15.2047 63.7765 15.1356 64.3781 15.0453C64.9797 14.955 65.583 14.842 66.1852 14.7441L67.9902 14.3666C70.3882 13.804 72.733 13.0345 74.9981 12.0668C75.5601 11.8092 76.1433 11.5943 76.688 11.3036L78.3385 10.4538C78.8863 10.1617 79.4013 9.81703 79.9369 9.50429L80.7316 9.01858L81.4904 8.48157L82.9995 7.378L84.4223 6.16317C84.6565 5.95642 84.9021 5.75963 85.1305 5.5479L85.7833 4.8784L87.0987 3.52794L87.1239 3.51758C87.1862 3.46937 87.2633 3.44434 87.3421 3.44678C87.4208 3.44922 87.4963 3.47898 87.5555 3.53096C87.6147 3.58294 87.654 3.65389 87.6666 3.73166C87.6792 3.80943 87.6644 3.88917 87.6247 3.95721L86.4199 5.46028L85.8235 6.21301C85.6124 6.45796 85.3829 6.68483 85.1635 6.91853L83.826 8.32217L82.3762 9.6142L81.6431 10.2581L80.8685 10.8457C80.3475 11.2295 79.8401 11.6371 79.3033 12.0091L77.6689 13.0762C77.1282 13.4388 76.5426 13.7281 75.9814 14.0588C73.692 15.3271 71.2971 16.3949 68.8236 17.2503L66.9492 17.851C66.3157 18.0242 65.6881 18.2207 65.0468 18.3751C64.4055 18.5295 63.7624 18.6883 63.1069 18.8082C62.4514 18.9281 61.818 19.0572 61.0759 19.1541C60.5767 19.2188 60.0723 19.0826 59.6736 18.7754C59.2749 18.4682 59.0145 18.0152 58.9498 17.516C58.8851 17.0168 59.0213 16.5124 59.3285 16.1137C59.6357 15.715 60.0887 15.4546 60.5878 15.3899L60.7793 15.3734L60.8254 15.3874Z" fill="#E7CF7F"/>
<path d="M63.8678 10.7117C64.9922 8.00808 63.712 4.90484 61.0084 3.78042C58.3048 2.65601 55.2016 3.9362 54.0771 6.63982C52.9527 9.34344 54.2329 12.4467 56.9365 13.5711C59.6402 14.6955 62.7434 13.4153 63.8678 10.7117Z" fill="#E7CF7F"/>
<path style="mix-blend-mode:multiply" opacity="0.5" d="M50.1508 33.3289C47.884 33.7071 45.5693 33.6973 43.3057 33.2998L46.1451 42.123L47.4234 42.0619C48.8779 42.0274 50.3077 41.9332 51.7547 41.7916L51.6571 41.2701L50.1508 33.3289Z" fill="url(#paint0_linear)"/>
<path style="mix-blend-mode:multiply" opacity="0.5" d="M68.7033 15.6149C68.6476 15.48 68.6259 15.3384 68.5778 15.204C68.5297 15.0696 68.4768 14.9592 68.4264 14.8369C68.3632 14.6733 68.2827 14.5169 68.1862 14.3705C68.1799 14.3511 68.1721 14.3322 68.1629 14.314L68.0064 14.3529L66.2014 14.7303C65.5992 14.8282 64.9967 14.9519 64.3943 15.0315C63.7919 15.1111 63.1846 15.1965 62.5839 15.2534C62.2558 15.2859 61.9126 15.3173 61.5825 15.336C61.8276 15.6866 62.043 16.0571 62.2267 16.4435C62.5791 17.2051 62.7924 18.0236 62.8565 18.8603L63.1188 18.8109C63.7692 18.6784 64.4149 18.5259 65.0588 18.3778C65.7026 18.2296 66.3276 18.0269 66.9611 17.8537L68.8356 17.253L68.9642 17.1999C68.9806 17.069 68.9851 16.9369 68.9776 16.8051C68.9418 16.3976 68.8495 15.997 68.7033 15.6149Z" fill="url(#paint1_linear)"/>
<path style="mix-blend-mode:multiply" opacity="0.5" d="M53.6867 9.03944C53.7265 9.60801 53.8566 10.1666 54.0719 10.6943C54.1363 10.8481 54.2082 10.9985 54.2873 11.1452C55.3709 11.373 56.4309 11.7016 57.4533 12.1266C58.3565 12.4903 59.2007 12.9859 59.9583 13.5973C60.0435 13.6614 60.12 13.74 60.2015 13.8128C60.4701 13.7486 60.7337 13.6644 60.9898 13.561C61.4208 13.382 61.8263 13.1468 62.1957 12.8616C61.1513 11.6097 59.8761 10.5702 58.4394 9.79954C56.9813 9.03197 55.3114 8.7649 53.6867 9.03944Z" fill="url(#paint2_linear)"/>
<path d="M35.2493 29.827C38.8582 28.8559 42.4466 27.7905 46.0413 26.7849C48.5702 26.0794 51.1843 25.3314 53.0712 23.4258C53.8048 22.7138 54.3225 21.8091 54.5647 20.8159C55.3407 17.3565 51.9956 16.3682 49.4829 15.2972C47.4234 14.4689 45.2942 13.826 43.1204 13.3763C39.6724 12.6106 36.1744 12.0904 32.6527 11.8198C32.1178 11.7871 31.5747 11.7432 31.161 11.3814C31.0407 11.2828 30.9484 11.1542 30.8935 11.0087C30.8386 10.8631 30.823 10.7056 30.8483 10.5521C30.9705 9.89585 31.8106 9.76957 32.4644 9.77893C38.8352 9.84212 45.2256 9.90825 51.543 10.7498C53.8237 11.0537 56.1327 11.4707 58.188 12.5101C60.2434 13.5495 62.0422 15.2931 62.6668 17.5102C63.667 21.0741 61.7053 25.1659 59.4551 27.864C56.9148 30.9094 53.1185 32.6811 49.377 33.6959C42.3244 35.5846 34.7327 36.4693 27.4974 37.141C21.2117 37.7086 14.9003 37.9419 8.58983 37.8398C8.46279 37.8376 8.33756 37.8093 8.22188 37.7567C8.10619 37.7042 8.0025 37.6285 7.9172 37.5343C7.8319 37.4401 7.76681 37.3295 7.72593 37.2092C7.68505 37.0889 7.66926 36.9615 7.67953 36.8348C7.69595 36.6353 7.77674 36.4466 7.90974 36.297C8.04273 36.1475 8.22074 36.0452 8.41692 36.0055C15.0706 34.6449 21.7899 32.9451 28.4188 31.5066C30.7073 31.0105 32.9829 30.4388 35.2493 29.827Z" fill="#E7CF7F"/>
<path d="M84.2932 26.1235V30.2401H94.5472V36.3385H84.2932V44.0188H76V20.0188H96V26.1235H84.2932Z" fill="white"/>
<path d="M98 20.0188H106V44.0188H98V20.0188Z" fill="white"/>
<path d="M108 26.2952H115.297V44.0188H123.703V26.2952H131V20.0188H108V26.2952Z" fill="white"/>
<path d="M143 20.0188H151.126V37.7424H162V44.0188H143V20.0188Z" fill="white"/>
<path d="M173 20.0188H165V44.0188H173V20.0188Z" fill="white"/>
<path d="M183.879 26.1235V30.2401H193.632V36.3385H183.879V44.0188H176V20.0188H195V26.1235H183.879Z" fill="white"/>
<path d="M218 44.0188V37.9139L205.972 37.9393V34.7631H216.16V28.9314H205.972V26.1235H217.554V20.0188H198V44.0188H218Z" fill="white"/>
<path d="M85 48V58H82.47L78.9884 53.4574V58H76V48H78.5532L82.0348 52.5426V48H85Z" fill="#E7CF7F"/>
<path d="M94.8054 56.7839C94.3988 56.3323 94.0847 55.7963 93.8831 55.2098C93.6814 54.6233 93.5964 53.9989 93.6335 53.376V48H96.7392V53.2828C96.6967 53.8322 96.8243 54.3813 97.1025 54.8472C97.1468 54.8987 97.1943 54.9468 97.2446 54.9912L97.2722 55.0149C97.2864 55.0269 97.3009 55.0385 97.3156 55.0498L97.3338 55.0636L97.3613 55.0837C97.4297 55.1323 97.5022 55.1747 97.5779 55.2102C97.7586 55.2948 97.9539 55.3385 98.1514 55.3385C98.2368 55.3385 98.3218 55.3303 98.4054 55.3142C98.4394 55.3076 98.4731 55.2997 98.5066 55.2905L98.5381 55.2815C98.6017 55.2625 98.6641 55.2386 98.7248 55.2102C98.9054 55.1256 99.0674 55.002 99.2003 54.8472C99.4764 54.3806 99.6019 53.8315 99.5577 53.2828V48.0062H102.617V53.3821C102.654 54.0051 102.569 54.6295 102.367 55.2159C102.165 55.8025 101.851 56.3385 101.445 56.7902C100.501 57.574 99.336 58 98.1367 58C96.9374 58 95.7727 57.574 94.8289 56.7902L94.8054 56.7839Z" fill="#E7CF7F"/>
<path d="M111.25 50.6176H114.105L114.124 58H117.407V50.6176H120.25V48H111.25V50.6176Z" fill="#E7CF7F"/>
<path fill-rule="evenodd" clip-rule="evenodd" d="M133.348 55.4655H132.394V58H128.875V48.0015H133.898C134.762 47.9832 135.62 48.1385 136.416 48.4576C137.098 48.7242 137.677 49.1843 138.077 49.7759C138.476 50.3673 138.676 51.0616 138.65 51.7651C138.667 52.4188 138.492 53.0642 138.146 53.6281C137.79 54.1719 137.283 54.6106 136.681 54.8953L138.875 57.9683H135.144L133.348 55.4655ZM134.746 50.9034C134.44 50.6799 134.058 50.5718 133.673 50.5992H132.394V52.931H133.673C134.058 52.9586 134.44 52.8503 134.746 52.6268C134.974 52.3926 135.1 52.0847 135.1 51.7651C135.1 51.4456 134.974 51.1378 134.746 50.9034Z" fill="#E7CF7F"/>
<path d="M150.5 48H147.5V58H150.5V48Z" fill="#E7CF7F"/>
<path d="M161.98 50.6176H159.125V48H168.125V50.6176H165.27V58H161.98V50.6176Z" fill="#E7CF7F"/>
<path d="M180.75 48H176.75V58H180.75V48Z" fill="#E7CF7F"/>
<path fill-rule="evenodd" clip-rule="evenodd" d="M192.042 57.3622C191.227 56.9539 190.545 56.3284 190.074 55.5573C189.602 54.786 189.361 53.9 189.376 53C189.363 52.093 189.609 51.2007 190.085 50.4241C190.556 49.6628 191.234 49.0463 192.042 48.644C192.919 48.2203 193.882 48 194.859 48C195.836 48 196.8 48.2203 197.677 48.644C198.484 49.0463 199.162 49.6628 199.633 50.4241C199.993 50.9995 200.229 51.642 200.326 52.3113C200.422 52.9805 200.377 53.6622 200.193 54.3136C200.01 54.965 199.691 55.5719 199.258 56.0966C198.825 56.6211 198.287 57.052 197.677 57.3622C196.799 57.7819 195.835 58 194.859 58C193.883 58 192.92 57.7819 192.042 57.3622ZM195.961 55.0961C196.295 54.8951 196.566 54.6071 196.745 54.2637C196.95 53.8738 197.052 53.4391 197.041 53C197.051 52.5612 196.949 52.1267 196.745 51.7363C196.566 51.3931 196.295 51.105 195.961 50.9041C195.712 50.7548 195.434 50.6577 195.146 50.6189C194.857 50.5801 194.563 50.6003 194.283 50.6785C194.002 50.7566 193.741 50.8909 193.516 51.0729C193.291 51.255 193.106 51.4808 192.974 51.7363C192.77 52.1267 192.668 52.5612 192.677 53C192.667 53.4391 192.768 53.8738 192.974 54.2637C193.15 54.6084 193.422 54.8969 193.758 55.0961C194.091 55.2906 194.471 55.3934 194.859 55.3934C195.247 55.3934 195.627 55.2906 195.961 55.0961Z" fill="#E7CF7F"/>
<path d="M216.188 58H219V48H215.667V52.5426L211.806 48H209V58H212.327V53.4574L216.188 58Z" fill="#E7CF7F"/>
<defs>
<linearGradient id="paint0_linear" x1="47.4971" y1="39.3034" x2="47.6123" y2="33.3701" gradientUnits="userSpaceOnUse">
<stop stop-color="white"/>
<stop offset="1" stop-color="#4E4E4C"/>
</linearGradient>
<linearGradient id="paint1_linear" x1="64.5827" y1="17.2677" x2="61.5519" y2="18.8997" gradientUnits="userSpaceOnUse">
<stop stop-color="white"/>
<stop offset="1" stop-color="#4E4E4C"/>
</linearGradient>
<linearGradient id="paint2_linear" x1="58.3319" y1="11.7306" x2="57.4661" y2="13.6844" gradientUnits="userSpaceOnUse">
<stop stop-color="white"/>
<stop offset="1" stop-color="#4E4E4C"/>
</linearGradient>
</defs>
</svg>
