<svg width="42" height="35" viewBox="0 0 42 35" fill="none" xmlns="http://www.w3.org/2000/svg">
<path d="M18.0626 33.6307C17.6809 33.6307 17.5566 33.4002 17.5566 33.0551V31.4998H18.8046V30.8146H17.5566V29.7695H16.7857V30.8146H16.0738V31.4998H16.7857V33.0699C16.7857 33.8697 17.1008 34.3455 18.0036 34.3455C18.3338 34.3455 18.7155 34.2444 18.9578 34.0793L18.7381 33.4384C18.5108 33.5666 18.261 33.6307 18.0626 33.6307Z" fill="#677E98"/>
<path d="M10.9373 31.2324C10.6949 30.9218 10.327 30.7271 9.82858 30.7271C8.84422 30.7271 8.07456 31.4838 8.07456 32.535C8.07456 33.5875 8.84548 34.343 9.82858 34.343C10.327 34.343 10.6949 34.1483 10.9373 33.8389V34.2567H11.6994V30.8146H10.9373V31.2324ZM9.92401 33.6381C9.26358 33.6381 8.85929 33.1414 8.85929 32.5363C8.85929 31.9312 9.26232 31.4345 9.92401 31.4345C10.5556 31.4345 10.9799 31.9102 10.9799 32.5363C10.9799 33.1623 10.5556 33.6381 9.92401 33.6381Z" fill="#677E98"/>
<path d="M6.01919 30.7271C5.57221 30.7209 5.10891 30.8565 4.78622 31.3396C4.5439 30.9575 4.16221 30.7271 3.62608 30.7271C3.25192 30.7271 2.88529 30.8355 2.59903 31.2385V30.8133H1.83564V34.2567H2.60656V32.3477C2.60656 31.7488 2.94431 31.432 3.46537 31.432C3.97136 31.432 4.22875 31.7561 4.22875 32.3403V34.2567H4.99967V32.3477C4.99967 31.7488 5.35249 31.432 5.85848 31.432C6.37954 31.432 6.6294 31.7561 6.6294 32.3403V34.2567H7.40032V32.0951C7.39906 31.2829 6.87047 30.7357 6.01919 30.7271Z" fill="#677E98"/>
<path d="M14.3348 32.19L13.9757 32.1394C13.6455 32.0963 13.3818 32.0322 13.3818 31.8017C13.3818 31.5491 13.6317 31.3975 14.0498 31.3975C14.498 31.3975 14.93 31.5639 15.1434 31.6933L15.4736 31.0882C15.107 30.8503 14.601 30.7283 14.0435 30.7283C13.1558 30.7283 12.5833 31.1461 12.5833 31.8301C12.5833 32.3921 13.0089 32.7384 13.7937 32.8456L14.154 32.8961C14.5721 32.9541 14.7692 33.0613 14.7692 33.256C14.7692 33.5222 14.4905 33.6738 13.9694 33.6738C13.4409 33.6738 13.0592 33.5074 12.8018 33.3139L12.4427 33.8969C12.8608 34.2 13.3894 34.3442 13.9619 34.3442C14.9752 34.3442 15.5628 33.8759 15.5628 33.2215C15.5603 32.6151 15.0982 32.2984 14.3348 32.19Z" fill="#677E98"/>
<path d="M34.9952 31.2324V30.8146H34.2393V34.258H35.0015V32.3268C35.0015 31.7574 35.2513 31.4406 35.751 31.4406C35.9042 31.4406 36.0662 31.4628 36.2282 31.5269L36.4617 30.8207C36.2934 30.7567 36.0725 30.7271 35.918 30.7271C35.4798 30.7271 35.1936 30.9292 34.9952 31.2324Z" fill="#677E98"/>
<path d="M32.4702 31.2324C32.2292 30.9218 31.8613 30.7271 31.3628 30.7271C30.3785 30.7271 29.6088 31.4838 29.6088 32.535C29.6088 33.5875 30.3797 34.343 31.3628 34.343C31.8613 34.343 32.2292 34.1483 32.4702 33.8389V34.2567H33.2336V30.8146H32.4702V31.2324ZM31.4583 33.6381C30.7978 33.6381 30.3935 33.1414 30.3935 32.5363C30.3935 31.9312 30.7978 31.4345 31.4583 31.4345C32.0898 31.4345 32.5142 31.9102 32.5142 32.5363C32.5142 33.1623 32.0885 33.6381 31.4583 33.6381Z" fill="#677E98"/>
<path d="M39.5529 31.2324C39.3106 30.9218 38.9439 30.7271 38.4455 30.7271C37.4611 30.7271 36.6915 31.4838 36.6915 32.535C36.6915 33.5875 37.4624 34.343 38.4455 34.343C38.9439 34.343 39.3118 34.1483 39.5529 33.8389V34.2567H40.3163V29.4306H39.5529V31.2324ZM38.5397 33.6381C37.8792 33.6381 37.4749 33.1414 37.4749 32.5363C37.4749 31.9312 37.8792 31.4345 38.5397 31.4345C39.1712 31.4345 39.5968 31.9102 39.5968 32.5363C39.5968 33.1623 39.1712 33.6381 38.5397 33.6381Z" fill="#677E98"/>
<path d="M27.9351 31.4333C28.2653 31.4333 28.5667 31.5417 28.8529 31.7438L29.2196 31.1387C28.8391 30.8442 28.4863 30.7283 27.9577 30.7283C26.8277 30.7283 26.0869 31.4924 26.0869 32.5363C26.0869 33.5814 26.8277 34.3442 27.9577 34.3442C28.4863 34.3442 28.8391 34.2296 29.2196 33.9338L28.8529 33.3287C28.5667 33.5308 28.2653 33.6393 27.9351 33.6393C27.3249 33.6319 26.8779 33.2005 26.8779 32.5375C26.8779 31.8732 27.3249 31.4406 27.9351 31.4333Z" fill="#677E98"/>
<path d="M21.1814 30.7271C20.1544 30.7271 19.4349 31.4628 19.4349 32.535C19.4349 33.6294 20.1845 34.343 21.2342 34.343C21.7615 34.343 22.2462 34.2136 22.6718 33.8599L22.2976 33.3053C22.0038 33.5358 21.6297 33.6652 21.2769 33.6652C20.7847 33.6652 20.3377 33.4421 20.2272 32.8222H22.8325C22.84 32.7285 22.8476 32.6349 22.8476 32.5338C22.8413 31.4628 22.1658 30.7271 21.1814 30.7271ZM20.236 32.2331C20.3163 31.7364 20.624 31.3975 21.1676 31.3975C21.6598 31.3975 21.9749 31.7007 22.0553 32.2331H20.236Z" fill="#677E98"/>
<path d="M24.3894 31.2324V30.8146H23.6336V34.258H24.3957V32.3268C24.3957 31.7574 24.6455 31.4406 25.1453 31.4406C25.2984 31.4406 25.4617 31.4628 25.6224 31.5269L25.8572 30.8207C25.6877 30.7567 25.4679 30.7271 25.3135 30.7271C24.8741 30.7271 24.5878 30.9292 24.3894 31.2324Z" fill="#677E98"/>
<path d="M26.4222 12.9445C26.4222 16.9018 24.6744 20.588 21.6083 23.1304C23.8106 24.7116 26.4134 25.5447 29.1643 25.5447C36.242 25.5447 42 19.8929 42 12.9457C42 5.99734 36.242 0.345459 29.1643 0.345459C26.4134 0.345459 23.8118 1.17857 21.6083 2.75854C24.6744 5.30225 26.4222 8.98719 26.4222 12.9445Z" fill="#677E98"/>
<path d="M12.8357 25.5435C15.5866 25.5435 18.1882 24.7104 20.3917 23.1292C17.3268 20.5867 15.5778 16.9006 15.5778 12.9433C15.5778 8.98719 17.3256 5.30102 20.3917 2.7573C18.1882 1.17857 15.5854 0.345459 12.8357 0.345459C5.75803 0.345459 0 5.99734 0 12.9445C0 19.8916 5.75803 25.5435 12.8357 25.5435Z" fill="#677E98"/>
<path d="M16.3287 12.9445C16.3287 16.7342 18.0262 20.2601 20.9981 22.6658C23.97 20.2614 25.6676 16.7342 25.6676 12.9433C25.6676 9.15356 23.97 5.62761 20.9981 3.22193C18.0262 5.62761 16.3287 9.1548 16.3287 12.9445Z" fill="#677E98"/>
</svg>
