<svg width="78" height="21" viewBox="0 0 78 21" fill="none" xmlns="http://www.w3.org/2000/svg">
<path fill-rule="evenodd" clip-rule="evenodd" d="M46.566 0.346313H52.6339C54.6645 0.346313 56.193 0.861888 57.0543 1.8367C57.8394 2.72445 58.1011 3.99204 57.8288 5.60535C57.2256 9.29291 54.92 11.1538 50.9226 11.1538H49.0029C48.8021 11.1539 48.6079 11.223 48.4553 11.3487C48.3028 11.4743 48.2019 11.6483 48.1708 11.8392L47.4744 16.0825C47.4526 16.216 47.3821 16.3377 47.2754 16.4256C47.1687 16.5136 47.0329 16.562 46.8925 16.5622H43.7787C43.7057 16.5622 43.6336 16.547 43.5674 16.5176C43.5011 16.4882 43.4422 16.4453 43.3949 16.3919C43.3475 16.3385 43.3127 16.2759 43.2929 16.2083C43.2731 16.1407 43.2687 16.0698 43.2801 16.0005L45.7339 1.0309C45.7651 0.840144 45.8661 0.666384 46.0187 0.540887C46.1712 0.41539 46.3653 0.346394 46.566 0.346313ZM49.7303 7.90837C51.3396 7.90837 53.0029 7.90837 53.3338 5.81363C53.4553 5.07782 53.3586 4.54518 53.0402 4.18666C52.5061 3.58573 51.4717 3.58573 50.377 3.58573H49.9574C49.8371 3.58559 49.7206 3.62691 49.6292 3.70222C49.5377 3.77753 49.4773 3.88186 49.4589 3.99631L48.8157 7.90837H49.7303Z" fill="#677E98"/>
<path fill-rule="evenodd" clip-rule="evenodd" d="M67.8647 5.74619H70.7682C70.8413 5.74611 70.9136 5.76125 70.98 5.79058C71.0465 5.8199 71.1055 5.86271 71.1531 5.91608C71.2008 5.96944 71.2358 6.03208 71.2559 6.09971C71.276 6.16734 71.2806 6.23835 71.2695 6.30786L69.6984 15.8759C69.6673 16.0668 69.5664 16.2408 69.4138 16.3664C69.2613 16.4921 69.0671 16.5612 68.8663 16.5613H66.2502C66.1769 16.5615 66.1045 16.5463 66.038 16.5169C65.9714 16.4874 65.9123 16.4444 65.8647 16.3909C65.8172 16.3373 65.7822 16.2744 65.7624 16.2066C65.7426 16.1387 65.7383 16.0675 65.7498 15.9979L65.8794 15.2212C65.8794 15.2212 64.4449 16.8217 61.8581 16.8217C60.3509 16.8217 59.0858 16.4034 58.1987 15.3996C57.2335 14.3078 56.8406 12.7423 57.1173 11.1051C57.6514 7.82301 60.3926 5.48328 63.603 5.48328C65.0029 5.48328 66.4045 5.77692 67.0335 6.65528L67.2375 6.93867L67.3662 6.15678C67.3844 6.04225 67.4448 5.93782 67.5363 5.86248C67.6278 5.78714 67.7443 5.74588 67.8647 5.74619ZM63.4407 13.8563C65.1209 13.8563 66.44 12.7841 66.7186 11.187C66.8472 10.4137 66.6716 9.71202 66.2271 9.20925C65.7853 8.7116 65.1147 8.44784 64.2897 8.44784C62.6352 8.44784 61.2974 9.55496 61.0339 11.1384C60.8991 11.9152 61.0606 12.6126 61.4899 13.1025C61.9228 13.5959 62.5988 13.8563 63.4407 13.8563Z" fill="#677E98"/>
<path d="M71.7033 16.0005L74.1934 0.756895C74.2122 0.642505 74.2726 0.538279 74.364 0.462888C74.4553 0.387498 74.5716 0.345869 74.692 0.345459H77.4952C77.5682 0.345583 77.6404 0.360917 77.7066 0.390407C77.7729 0.419896 77.8317 0.462842 77.8791 0.516293C77.9265 0.569743 77.9612 0.63243 77.981 0.700044C78.0009 0.767658 78.0052 0.838596 77.9938 0.907982L75.5383 15.8767C75.4744 16.272 75.1213 16.5622 74.7053 16.5622H72.2018C72.1289 16.5622 72.0568 16.547 71.9905 16.5176C71.9242 16.4882 71.8654 16.4453 71.818 16.3919C71.7706 16.3385 71.7358 16.2759 71.716 16.2083C71.6962 16.1407 71.6919 16.0698 71.7033 16.0005Z" fill="#677E98"/>
<path fill-rule="evenodd" clip-rule="evenodd" d="M3.29282 0.346436H9.35979C11.3904 0.346436 12.9198 0.862011 13.7821 1.83682C14.5672 2.72457 14.8271 3.99217 14.5556 5.60547C13.9533 9.29303 11.6468 11.1539 7.65033 11.1539H5.72972C5.5289 11.154 5.33471 11.2231 5.18215 11.3488C5.02959 11.4744 4.92869 11.6484 4.89761 11.8393L4.23582 15.8769C4.20473 16.0679 4.10369 16.242 3.95094 16.3677C3.7982 16.4934 3.6038 16.5624 3.40282 16.5623H0.506394C0.433327 16.5624 0.361105 16.5473 0.2947 16.5179C0.228295 16.4886 0.169285 16.4458 0.121733 16.3924C0.0741816 16.339 0.0392185 16.2763 0.01925 16.2087C-0.000718479 16.1411 -0.00521841 16.0701 0.00606227 16.0006L2.45982 1.03102C2.49111 0.840122 2.59223 0.666249 2.74495 0.540733C2.89768 0.415218 3.09197 0.346314 3.29282 0.346436ZM6.45627 7.90849C8.06461 7.90849 9.72795 7.90849 10.0597 5.81375C10.1813 5.07795 10.0837 4.5453 9.76521 4.18679C9.23116 3.58585 8.19768 3.58585 7.10209 3.58585H6.68248C6.56206 3.58585 6.44559 3.62721 6.35403 3.70248C6.26248 3.77774 6.20184 3.88198 6.18304 3.99643L5.54077 7.90849H6.45627Z" fill="#677E98"/>
<path fill-rule="evenodd" clip-rule="evenodd" d="M24.5898 5.74632H27.4951C27.568 5.7463 27.6401 5.76151 27.7063 5.79091C27.7725 5.82031 27.8313 5.86319 27.8787 5.9166C27.926 5.97001 27.9607 6.03266 27.9804 6.10023C28.0001 6.16781 28.0043 6.23869 27.9927 6.30799L26.4226 15.876C26.3915 16.0671 26.2904 16.2411 26.1377 16.3668C25.9849 16.4925 25.7905 16.5615 25.5895 16.5614H22.9726C22.8995 16.5613 22.8273 16.546 22.7609 16.5164C22.6946 16.4869 22.6357 16.4439 22.5883 16.3903C22.5409 16.3368 22.5062 16.274 22.4864 16.2063C22.4667 16.1385 22.4625 16.0675 22.474 15.9981L22.6035 15.2213C22.6035 15.2213 21.1691 16.8218 18.5822 16.8218C17.075 16.8218 15.8082 16.4035 14.9229 15.3997C13.9577 14.3079 13.5629 12.7424 13.8406 11.1052C14.3747 7.82313 17.1167 5.48341 20.3272 5.48341C21.7271 5.48341 23.1296 5.77705 23.7585 6.6554L23.9617 6.9388L24.0903 6.1569C24.1091 6.04245 24.1698 5.93821 24.2613 5.86294C24.3529 5.78767 24.4694 5.74632 24.5898 5.74632ZM20.1675 13.8564C21.8477 13.8564 23.1651 12.7843 23.4454 11.1872C23.5723 10.4138 23.3966 9.71215 22.9539 9.20938C22.5122 8.71173 21.8415 8.44797 21.0165 8.44797C19.362 8.44797 18.0225 9.55509 17.7608 11.1385C17.6242 11.9153 17.7874 12.6127 18.2167 13.1027C18.6497 13.596 19.3239 13.8564 20.1675 13.8564Z" fill="#677E98"/>
<path d="M40.0486 5.74632H42.9681C43.0604 5.74636 43.151 5.77071 43.2299 5.81674C43.3089 5.86276 43.3732 5.9287 43.416 6.00741C43.4587 6.08612 43.4783 6.17459 43.4725 6.26324C43.4668 6.35189 43.4359 6.43732 43.3833 6.51029L33.6729 19.9972C33.5953 20.1048 33.4917 20.1927 33.3711 20.2534C33.2504 20.314 33.1162 20.3456 32.9801 20.3455H30.0642C29.9714 20.3455 29.8803 20.321 29.801 20.2745C29.7218 20.2281 29.6573 20.1616 29.6147 20.0822C29.5721 20.0029 29.553 19.9138 29.5595 19.8247C29.566 19.7357 29.5979 19.65 29.6516 19.5772L32.6749 15.4705L29.4591 6.38993C29.4331 6.31659 29.4257 6.23833 29.4375 6.16168C29.4493 6.08502 29.4799 6.01218 29.5269 5.94922C29.5738 5.88626 29.6357 5.835 29.7074 5.79971C29.7791 5.76442 29.8585 5.74611 29.9391 5.74632H32.808C32.9896 5.7464 33.1663 5.80273 33.312 5.90696C33.4577 6.01119 33.5647 6.15779 33.617 6.32506L35.3239 11.8094L39.3505 6.10227C39.428 5.99277 39.5321 5.90311 39.6537 5.84109C39.7754 5.77906 39.9109 5.74653 40.0486 5.74632Z" fill="#677E98"/>
</svg>
