<svg width="131" height="23" viewBox="0 0 131 23" fill="none" xmlns="http://www.w3.org/2000/svg">
<path d="M109.884 22.2295L111.158 15.8611H1.38947L0 22.2295H109.884Z" fill="#677E98" fill-opacity="0.2"/>
<path d="M123.084 7.17704C123.084 7.17704 124.589 0.461248 124.589 0.345459H115.211C115.211 0.345459 113.242 9.26125 113.242 9.37704H115.674L117.179 2.66125H121.695C121.695 2.66125 120.305 9.37704 120.189 9.49283H127.137L126.211 13.6612H119.379L117.989 20.0297H112.779L112.316 22.3455H119.958L121.347 15.977H128.179L130.032 7.29283H123.084V7.17704Z" fill="#677E98"/>
<path d="M7.98948 10.7664L9.03158 6.13482H10.3053C11.6947 6.13482 12.3895 6.71376 12.3895 7.98745C12.2737 9.72429 11.2316 10.7664 9.26316 10.7664H7.98948ZM7.41053 13.3138H8.68421C12.9684 13.3138 15.2842 11.2296 15.2842 7.75587C15.2842 5.2085 13.4316 3.47166 10.3053 3.47166H6.48421L3.47369 17.7138H6.48421L7.41053 13.3138ZM20.1474 15.5138C18.9895 15.5138 17.9474 14.5874 18.4105 12.3874C18.8737 10.1874 19.9158 9.26113 21.0737 9.26113C22.2316 9.26113 23.2737 10.1874 22.8105 12.3874C22.3474 14.5874 21.3053 15.5138 20.1474 15.5138ZM19.8 17.9453C23.1579 17.9453 25.3579 15.5138 25.8211 12.3874C26.4 9.26113 24.5474 6.82955 21.3053 6.82955C18.0632 6.82955 15.7474 9.26113 15.2842 12.3874C14.8211 15.6296 16.5579 17.9453 19.8 17.9453ZM31.1474 14.5874C31.1474 15.398 30.1053 15.6296 29.2947 15.6296C28.2526 15.6296 26.979 15.2822 26.2842 15.1664L25.8211 17.4822C26.7474 17.7138 28.0211 17.9453 29.0632 17.9453C31.7263 17.9453 33.9263 16.9032 33.9263 14.3559C33.9263 11.1138 29.9895 11.6927 29.9895 10.1874C29.9895 9.49271 30.5684 9.26113 31.6105 9.26113C32.5368 9.26113 33.9263 9.6085 34.2737 9.72429L34.7368 7.29271C33.8105 7.06113 32.7684 6.94534 31.8421 6.94534C28.9474 6.94534 27.0947 8.21903 27.0947 10.419C27.2105 13.6611 31.1474 13.0822 31.1474 14.5874ZM42.4947 9.49271L42.9579 7.17692H39.7158L40.2947 4.28219L37.2842 4.97692L35.3158 13.8927C34.7368 16.4401 36.1263 17.8296 38.6737 17.8296C39.2526 17.8296 40.0632 17.7138 40.7579 17.4822L41.2211 15.1664C40.7579 15.2822 40.0632 15.398 39.4842 15.398C38.6737 15.398 37.9789 15.0506 38.2105 14.0085L39.2526 9.37692H42.4947V9.49271ZM45.5053 17.7138L46.6632 12.2717H51.179L51.7579 9.6085H47.2421L47.9368 6.25061H52.6842L53.2632 3.47166H45.3895L42.4947 17.7138H45.5053ZM53.9579 7.17692L51.7579 17.598H54.7684L56.9684 7.17692H53.9579ZM54.4211 4.39797C54.3053 5.32429 55 6.13482 55.9263 6.13482C56.9684 6.13482 57.6632 5.44008 57.779 4.39797C57.8947 3.35587 57.2 2.66113 56.2737 2.66113C55.2316 2.66113 54.5368 3.35587 54.4211 4.39797ZM59.8632 17.7138L61.0211 12.3874C61.4842 10.1874 62.5263 9.49271 63.6842 9.49271C65.0737 9.49271 65.3053 10.5348 64.9579 11.6927L63.5684 17.7138H66.5789L67.8526 11.5769C68.5474 8.5664 67.0421 6.94534 64.8421 6.94534C63.5684 6.94534 62.4105 7.4085 61.4842 8.45061L61.7158 7.17692H59.0526L56.8526 17.598H59.8632V17.7138ZM74.4526 6.94534C73.0632 6.94534 71.6737 7.29271 71.2105 7.4085L70.6316 9.84008C71.3263 9.6085 72.6 9.26113 73.7579 9.26113C75.3789 9.26113 75.9579 9.72429 75.9579 10.5348C75.9579 10.6506 75.9579 10.8822 75.9579 10.998V11.2296C75.1474 11.1138 74.4526 11.1138 74.1053 11.1138C71.0947 11.1138 68.779 12.2717 68.779 15.0506C68.779 16.7874 70.1684 17.9453 72.0211 17.9453C73.2947 17.9453 74.4526 17.4822 75.1474 16.5559L74.6842 17.7138H77.3474L78.7368 11.6927C78.8526 11.2296 78.8526 10.7664 78.8526 10.3032C78.8526 8.5664 77.8105 6.94534 74.4526 6.94534ZM71.4421 14.7032C71.4421 13.6611 72.3684 13.0822 73.8737 13.0822C74.2211 13.0822 74.8 13.0822 75.3789 13.198L75.2632 13.7769C74.9158 15.0506 73.8737 15.8611 72.7158 15.8611C71.9053 15.7453 71.4421 15.398 71.4421 14.7032ZM82.3263 17.7138L83.4842 12.3874C83.9474 10.1874 84.9895 9.49271 86.1474 9.49271C87.5368 9.49271 87.7684 10.5348 87.4211 11.6927L86.1474 17.7138H89.1579L90.4316 11.5769C91.1263 8.5664 89.6211 6.94534 87.4211 6.94534C86.1474 6.94534 84.9895 7.4085 84.0632 8.45061L84.2947 7.17692H81.5158L79.3158 17.598H82.3263V17.7138ZM96.8 15.398C95.4105 15.398 94.4842 14.819 94.4842 13.0822C94.4842 11.1138 95.7579 9.37692 97.7263 9.37692C98.3053 9.37692 99.1158 9.6085 99.8105 9.84008L100.274 7.4085C99.4632 7.06113 98.5368 6.94534 97.4947 6.94534C94.1368 6.94534 91.3579 9.37692 91.3579 13.198C91.3579 16.3243 93.3263 17.8296 95.9895 17.8296C96.9158 17.8296 97.7263 17.7138 98.3053 17.4822L98.8842 15.0506C98.3053 15.1664 97.6105 15.398 96.8 15.398ZM108.263 17.4822L108.842 14.9348C107.916 15.2822 106.989 15.5138 105.832 15.5138C104.442 15.5138 103.284 15.0506 103.284 13.4296H110.232C110.463 12.619 110.579 11.8085 110.579 10.998C110.579 8.68219 109.189 6.82955 106.295 6.82955C102.589 6.82955 100.274 9.95587 100.274 13.3138C100.274 16.2085 102.242 17.9453 105.253 17.9453C106.526 17.9453 107.453 17.8296 108.263 17.4822ZM106.179 9.14534C107.221 9.14534 107.8 9.84008 107.8 10.8822C107.8 11.1138 107.8 11.2296 107.8 11.4611H103.516C103.979 10.0717 104.905 9.14534 106.179 9.14534Z" fill="#677E98"/>
</svg>
