<svg width="123" height="15" viewBox="0 0 123 15" fill="none" xmlns="http://www.w3.org/2000/svg">
<path d="M45.5036 10.5941C45.7782 9.8128 46.0299 9.11677 46.274 8.41364C47.1513 5.89943 48.0286 3.38521 48.8906 0.87099C48.9669 0.643716 49.0737 0.551386 49.3483 0.558488C50.0196 0.579795 50.6985 0.579795 51.3698 0.558488C51.7207 0.544284 51.6978 0.657921 51.6063 0.899399C50.1493 4.78436 48.6999 8.66933 47.2505 12.5472C47.075 13.023 46.8843 13.4989 46.7165 13.9819C46.6555 14.1594 46.5563 14.2162 46.3656 14.2162C45.8087 14.202 45.2442 14.1949 44.6873 14.2233C44.3898 14.2375 44.3288 14.0884 44.2525 13.8895C43.154 10.9137 42.0555 7.93779 40.957 4.96192C40.9112 4.84118 40.8578 4.72044 40.8044 4.5784C40.6595 4.71334 40.6366 4.87669 40.5909 5.01874C39.4924 7.9662 38.4015 10.9208 37.3183 13.8753C37.2267 14.131 37.1123 14.2304 36.8148 14.2162C36.3113 14.1949 35.8002 14.1949 35.2891 14.2162C35.0221 14.2304 34.9229 14.131 34.839 13.9108C33.2828 9.73467 31.7114 5.56562 30.1475 1.39656C30.0789 1.2048 30.0179 1.01304 29.9339 0.828376C29.8195 0.594 29.9187 0.551386 30.1552 0.558488C30.857 0.572693 31.5512 0.572693 32.253 0.558488C32.5429 0.551386 32.6649 0.629512 32.7565 0.899399C33.8244 4.01021 34.9153 7.10682 35.9985 10.2105C36.0367 10.31 36.0672 10.4094 36.1359 10.5727C36.3571 9.95484 36.563 9.40086 36.7614 8.84688C37.7073 6.19772 38.6609 3.54856 39.5915 0.892297C39.6983 0.601102 39.8433 0.508772 40.156 0.530079C40.6214 0.551386 41.0943 0.551386 41.5673 0.530079C41.8495 0.515875 41.9563 0.608205 42.0403 0.849683C43.0243 3.62669 44.016 6.39659 45.0077 9.16649C45.1527 9.62104 45.3129 10.0614 45.5036 10.5941Z" fill="#677E98"/>
<path d="M80.8537 14.124C79.8315 14.124 78.9085 14.1169 77.9778 14.1311C77.7642 14.1311 77.6955 14.0032 77.604 13.8825C76.5284 12.4762 75.4528 11.0771 74.3924 9.66373C74.2475 9.46487 74.0949 9.38674 73.8356 9.39385C72.9812 9.40805 72.1344 9.40805 71.28 9.39385C71.0207 9.38674 70.9597 9.46487 70.9673 9.69214C70.9749 11.0345 70.9597 12.3839 70.9825 13.7263C70.9825 14.0246 70.9291 14.1453 70.5706 14.124C69.9603 14.0956 69.3501 14.1027 68.7398 14.124C68.4499 14.1311 68.3813 14.0459 68.3813 13.7831C68.3889 10.999 68.3889 8.20776 68.3889 5.42366C68.3889 3.91086 68.3965 2.39807 68.3813 0.892382C68.3813 0.629597 68.4499 0.551472 68.7398 0.551472C70.8223 0.565676 72.9049 0.551472 74.9875 0.558574C75.819 0.565676 76.6276 0.672211 77.4133 0.934996C79.7781 1.71625 80.5714 3.58416 80.3197 5.48758C80.0909 7.23475 78.9619 8.30719 77.2302 8.87538C76.9403 8.96771 76.9098 9.03163 77.0929 9.2589C78.2524 10.7362 79.3967 12.2277 80.5409 13.7121C80.6325 13.8399 80.724 13.9535 80.8537 14.124ZM70.9673 4.97621C70.9673 5.65803 70.9749 6.34696 70.9597 7.02878C70.9597 7.22764 71.0283 7.29156 71.2419 7.29156C72.0124 7.28446 72.7905 7.29867 73.5609 7.28446C74.2475 7.27736 74.9341 7.34838 75.613 7.21344C76.5284 7.02878 77.3065 6.64525 77.5964 5.75746C77.993 4.55717 77.6116 3.0941 75.5443 2.82421C74.0949 2.63955 72.6303 2.7887 71.1733 2.74609C70.9215 2.73898 70.9597 2.89523 70.9597 3.03018C70.9673 3.67649 70.9673 4.3228 70.9673 4.97621Z" fill="#677E98"/>
<path d="M54.3449 7.34834C54.3449 5.21054 54.3526 3.07275 54.3373 0.934951C54.3373 0.643756 54.4212 0.558528 54.734 0.558528C58.0981 0.565631 61.4699 0.572733 64.834 0.558528C65.1544 0.558528 65.2459 0.643756 65.2307 0.934951C65.2078 1.4037 65.2002 1.87956 65.2307 2.34831C65.2459 2.65371 65.1239 2.71763 64.8187 2.71053C62.3395 2.69632 59.8603 2.71053 57.3887 2.69632C57.0225 2.69632 56.9157 2.77445 56.9233 3.12246C56.9538 4.03156 56.9462 4.94065 56.9233 5.84975C56.9157 6.15515 57.0225 6.21197 57.3276 6.21197C59.5094 6.19776 61.6987 6.21197 63.8805 6.19776C64.2008 6.19776 64.2924 6.27589 64.2771 6.56708C64.2466 7.03584 64.2466 7.51169 64.2771 7.98044C64.3 8.29294 64.1703 8.34266 63.8728 8.34266C61.6987 8.32846 59.5246 8.34266 57.3582 8.32846C56.992 8.32846 56.9157 8.43499 56.9233 8.74749C56.9462 9.6921 56.9462 10.6367 56.9233 11.5813C56.9157 11.8867 56.9996 11.979 57.3429 11.979C59.8603 11.9648 62.37 11.979 64.8874 11.9648C65.2154 11.9648 65.3604 12.0146 65.3375 12.3626C65.2993 12.8455 65.3146 13.3285 65.3299 13.8114C65.3375 14.0387 65.2765 14.1168 65.0171 14.1168C61.5614 14.1097 58.1057 14.1097 54.6501 14.1168C54.3526 14.1168 54.3297 13.9961 54.3297 13.7759C54.3449 11.6452 54.3449 9.50034 54.3449 7.34834Z" fill="#677E98"/>
<path d="M94.8366 14.124C95.3859 12.9592 95.9122 11.8512 96.4386 10.7433C98.01 7.4194 99.5815 4.10262 101.145 0.778736C101.252 0.54436 101.382 0.466235 101.649 0.473337C102.206 0.494644 102.77 0.494644 103.327 0.473337C103.594 0.466235 103.724 0.537258 103.838 0.771634C105.219 3.71909 106.615 6.66655 108.011 9.60691C108.675 11.0061 109.338 12.4123 110.002 13.8115C110.109 14.0388 110.116 14.1382 109.788 14.1311C109.102 14.1098 108.415 14.1169 107.729 14.1311C107.492 14.1382 107.37 14.0672 107.279 13.8541C106.882 12.9521 106.455 12.0501 106.058 11.1481C105.966 10.9279 105.852 10.8427 105.585 10.8427C103.487 10.8569 101.389 10.8498 99.2992 10.8427C99.0551 10.8427 98.9483 10.9208 98.8568 11.1268C98.4525 12.0288 98.0253 12.9237 97.621 13.8257C97.5294 14.0388 97.415 14.1311 97.148 14.124C96.4081 14.1098 95.6528 14.124 94.8366 14.124ZM99.9324 8.74753C101.534 8.74753 103.068 8.74043 104.593 8.75463C104.929 8.75463 104.944 8.67651 104.822 8.42082C104.067 6.8299 103.319 5.23189 102.572 3.63387C102.534 3.55574 102.526 3.4492 102.404 3.41369C101.595 5.16796 100.779 6.92934 99.9324 8.74753Z" fill="#677E98"/>
<path d="M83.5695 7.32701C83.5695 5.18922 83.5771 3.05142 83.5619 0.913625C83.5619 0.643737 83.6305 0.551407 83.9356 0.558509C86.0182 0.594021 88.1008 0.473282 90.1833 0.62243C91.9684 0.750272 93.4864 1.39658 94.379 2.93778C95.9428 5.63666 94.3866 8.75458 91.0988 9.53583C90.4732 9.68498 89.8324 9.7631 89.1764 9.7631C88.2991 9.756 87.4218 9.77731 86.5446 9.756C86.2394 9.7489 86.1326 9.81282 86.1403 10.1182C86.1631 11.3469 86.1403 12.5756 86.1555 13.8043C86.1555 14.0742 86.0792 14.1452 85.797 14.1381C85.1638 14.1168 84.523 14.1168 83.8899 14.1381C83.6153 14.1452 83.5542 14.06 83.5542 13.8185C83.5695 11.6523 83.5695 9.49322 83.5695 7.32701ZM86.1555 5.17501C86.1555 5.90655 86.1555 6.63809 86.1555 7.36962C86.1555 7.49747 86.125 7.63241 86.3539 7.62531C87.5439 7.5898 88.7416 7.71764 89.924 7.54718C90.9767 7.39803 91.8311 6.93638 92.1744 5.93496C92.571 4.77728 92.2201 3.17216 90.0994 2.83125C88.856 2.63238 87.5897 2.78153 86.3386 2.74602C86.0945 2.73892 86.1632 2.90227 86.1632 3.01591C86.1555 3.73324 86.1555 4.45058 86.1555 5.17501Z" fill="#677E98"/>
<path d="M0.0152569 7.34118C0.0152569 5.20339 0.0228853 3.07269 0.00762843 0.934898C0.00762843 0.636601 0.0915411 0.558475 0.411935 0.565578C2.20462 0.579782 3.98967 0.565578 5.78235 0.57268C6.69013 0.579782 7.57503 0.700522 8.42178 1.01302C10.5577 1.80848 11.5189 3.56985 11.3282 5.52299C11.107 7.72471 9.61182 9.15937 7.17835 9.62102C5.9578 9.8483 4.722 9.74886 3.49382 9.77017C2.57841 9.78438 2.57841 9.77017 2.57841 10.6153C2.57841 11.6807 2.57078 12.7389 2.58604 13.8043C2.58604 14.0671 2.50975 14.1523 2.21987 14.1452C1.62486 14.1239 1.02221 14.1239 0.427192 14.1452C0.0991695 14.1594 0 14.0813 0 13.7617C0.0228853 11.6168 0.0152569 9.47898 0.0152569 7.34118ZM2.57841 5.18208C2.57841 5.89941 2.58604 6.62385 2.57841 7.34118C2.57841 7.54715 2.62418 7.63948 2.86829 7.63238C3.80659 7.61817 4.74488 7.64658 5.68318 7.61817C6.62148 7.58976 7.50637 7.3838 8.13953 6.68067C8.81083 5.94203 8.87186 5.08975 8.52858 4.21616C8.17767 3.32127 7.36906 2.94485 6.41551 2.81701C5.21784 2.66076 4.00492 2.7744 2.80726 2.74599C2.56315 2.73888 2.58604 2.88093 2.58604 3.02298C2.57841 3.74031 2.57841 4.45764 2.57841 5.18208Z" fill="#677E98"/>
<path d="M13.3345 7.35543C13.3651 5.16791 14.25 3.34972 16.0503 1.92926C16.6224 1.47471 17.3929 1.56704 17.8353 2.13523C17.9803 2.32699 18.026 2.54006 17.965 2.77444C17.8658 3.16506 17.6217 3.47046 17.3318 3.76166C15.8672 5.21053 15.3256 6.90798 15.9892 8.8114C16.6605 10.7219 18.1099 11.9222 20.2612 12.2773C22.9082 12.7106 25.6316 10.8782 26.1579 8.34975C26.5241 6.55997 25.8909 5.05428 24.6094 3.74035C24.4034 3.52728 24.1898 3.32842 24.0677 3.06563C23.8541 2.60398 23.9533 2.24176 24.3653 1.92926C24.884 1.53863 25.3875 1.48892 25.8223 1.80142C27.2412 2.83125 28.1261 4.17359 28.5075 5.80002C29.3771 9.52163 27.0505 13.1225 23.0989 14.0813C19.361 14.9904 15.4934 13.5202 13.9448 10.175C13.5253 9.28015 13.3193 8.34265 13.3345 7.35543Z" fill="#677E98"/>
<path d="M108.903 0.572733C109.857 0.572733 110.803 0.572733 111.749 0.572733C111.947 0.572733 111.993 0.721881 112.069 0.835518C113.29 2.6182 114.503 4.39378 115.723 6.17646C115.8 6.28299 115.876 6.38952 115.975 6.52447C116.074 6.39663 116.15 6.29719 116.219 6.19066C117.455 4.40798 118.698 2.6253 119.926 0.835518C120.071 0.629551 120.216 0.558528 120.476 0.558528C121.315 0.572733 122.146 0.565631 122.993 0.565631C123.031 0.728984 122.902 0.814211 122.833 0.913644C121.04 3.42786 119.24 5.94208 117.44 8.4563C117.31 8.64096 117.249 8.82562 117.249 9.04579C117.257 10.6296 117.249 12.2063 117.257 13.7901C117.257 14.0529 117.196 14.1381 116.906 14.131C116.272 14.1097 115.639 14.1097 114.999 14.131C114.701 14.1381 114.648 14.0458 114.648 13.7901C114.663 12.2347 114.648 10.6722 114.655 9.11681C114.655 8.89664 114.602 8.71198 114.472 8.52732C112.664 5.9918 110.864 3.44917 109.064 0.913644C109.003 0.814211 108.896 0.736086 108.903 0.572733Z" fill="#677E98"/>
<path d="M22.1453 3.97474C22.1453 4.79861 22.153 5.62248 22.1453 6.44635C22.1377 7.13527 21.6647 7.61113 21.0011 7.60402C20.3374 7.59692 19.8492 7.11396 19.8492 6.44635C19.8415 4.79861 19.8415 3.14377 19.8492 1.49603C19.8492 0.814212 20.3298 0.345459 21.0087 0.345459C21.6952 0.345459 22.1453 0.792905 22.1529 1.49603C22.1529 2.327 22.1453 3.15087 22.1453 3.97474Z" fill="#677E98"/>
</svg>
