<svg width="83" height="26" viewBox="0 0 83 26" fill="none" xmlns="http://www.w3.org/2000/svg">
<path d="M64.3425 4.91969C63.9094 6.09734 63.132 6.82588 61.653 6.82588H61.6475L60.8822 6.82466L62.1901 3.26083H62.9343C64.2959 3.26177 64.8044 3.66369 64.3425 4.91969ZM68.2674 1.66418C67.6024 0.696323 66.2485 0.221018 64.128 0.218972H59.2185L53.9083 14.9554H58.4191L60.3492 9.76811C60.4434 9.98088 61.5826 14.9554 61.5826 14.9554H66.3239C66.3239 14.9554 65.4616 11.3 64.8274 9.82354C64.6641 9.44454 64.4942 9.0187 64.2674 8.66384C65.6066 8.16076 67.5471 7.08152 68.3504 4.89309C68.8445 3.54804 68.8157 2.46224 68.2674 1.66418ZM22.9453 0.210377H14.5833C13.2646 0.210377 11.9846 0.210376 10.8368 0.798295C9.68918 1.38709 8.67672 2.56474 7.89665 4.9194C7.72762 5.42628 7.63797 5.86224 7.62669 6.24036C7.61506 6.62118 7.68011 6.94358 7.82219 7.22436C7.99764 7.56606 8.2821 7.88888 8.63774 8.16059C8.99367 8.43148 9.42009 8.6532 9.87924 8.7944C9.89724 8.79914 10.1384 8.86895 10.4306 8.95268C10.7136 9.03533 10.9963 9.11935 11.2785 9.20475C11.4046 9.24375 11.5439 9.2945 11.67 9.37075C11.7958 9.44617 11.9084 9.54744 11.9797 9.68871C12.0264 9.7836 12.0518 9.88754 12.0542 9.99328C12.0572 10.1029 12.0389 10.2212 11.9959 10.3454C11.8891 10.6661 11.7268 10.8712 11.4179 10.9981C11.1098 11.1232 10.6548 11.1643 9.96574 11.17H1.36061L0 14.9457H9.21127C10.0774 14.9457 11.6622 14.9457 13.1848 14.2919C14.7075 13.6381 16.168 12.3315 16.7861 9.71724C17.019 8.73424 16.9473 7.93448 16.5657 7.30563C16.1842 6.67632 15.4924 6.2213 14.4869 5.92924C14.4869 5.92924 14.2617 5.86317 13.9967 5.78599C13.7323 5.70963 13.4278 5.62169 13.2715 5.57614C13.014 5.50165 12.8164 5.35079 12.6993 5.15901C12.5826 4.96799 12.5473 4.73522 12.6141 4.49742C12.6828 4.25138 12.8498 4.05381 13.0911 3.91821C13.3336 3.78291 13.652 3.70836 14.0232 3.70836H19.3772C19.4145 3.65264 19.4487 3.5937 19.4868 3.53827C20.465 2.14036 21.6488 1.00926 22.9453 0.210377Z" fill="#677E98"/>
<path d="M26.8732 7.51028C25.6237 10.9664 24.7163 11.8367 23.351 11.8367H23.3484C22.0181 11.8347 21.5518 10.9845 22.7968 7.54489C23.7259 4.97659 24.9301 3.33374 26.3859 3.33374H26.3868C27.7721 3.33585 28.0896 4.14672 26.8732 7.51028ZM31.1616 1.59092C30.4326 0.537518 29.1858 0.00175411 27.4506 0C26.315 0 25.2134 0.263409 24.18 0.756021C22.7032 1.46223 21.3639 2.64105 20.2704 4.20513C19.5608 5.2207 18.9532 6.39654 18.4761 7.71276C17.5782 10.197 17.5888 12.2129 18.5066 13.5413C19.0276 14.2917 20.1082 15.189 22.3073 15.1906H22.3158C26.3219 15.1906 29.3135 12.5374 31.2073 7.30429C31.7073 5.91854 32.3676 3.33497 31.1616 1.59092ZM47.171 0.210377H38.6489C36.2665 0.210377 34.4932 1.42825 33.6553 3.70836L29.6075 14.9456H34.0418L36.1216 9.16832L40.0406 9.17154L41.155 6.07793L37.249 6.07524L37.8777 4.28371C38.0095 3.96312 38.3224 3.70743 38.7812 3.70743C39.0362 3.70743 41.9124 3.70831 43.4018 3.70924C43.4399 3.65381 43.4743 3.59364 43.5124 3.53821C44.49 2.14036 45.8744 1.00926 47.171 0.210377ZM51.0471 7.51028C49.7984 10.9664 48.8909 11.8367 47.5258 11.8367H47.5229C46.192 11.8347 45.7275 10.9845 46.9716 7.54489C47.8997 4.97659 49.1047 3.33374 50.5604 3.33374H50.5624C51.9468 3.33585 52.2644 4.14672 51.0471 7.51028ZM55.3364 1.59092C54.6065 0.537518 53.3605 0.00175411 51.6242 0C50.4898 0 49.3881 0.263409 48.3556 0.756021C46.878 1.46223 45.5394 2.64105 44.4452 4.20513C43.7345 5.2207 43.1276 6.39654 42.6509 7.71276C41.7529 10.197 41.7636 12.2129 42.6823 13.5413C43.2019 14.2917 44.283 15.189 46.4839 15.1906H46.4897C50.4975 15.1906 53.4892 12.5374 55.3812 7.30429C55.8829 5.91854 56.5424 3.33497 55.3364 1.59092Z" fill="#677E98"/>
<path d="M68.4696 0.218738C68.7548 0.446947 69.001 0.707082 69.2062 1.00511C69.73 1.76884 69.9312 2.67712 69.812 3.71766H72.4976L68.4486 14.9579H72.4937L76.5436 3.71766H81.7396L83 0.218796L68.4696 0.218738Z" fill="#677E98"/>
<path d="M7.3157 17.1975C7.22026 17.4609 7.10097 17.646 6.95889 17.7512C6.81675 17.857 6.60208 17.9098 6.31505 17.9098C6.02808 17.9098 5.85234 17.8591 5.79039 17.7569C5.72814 17.6556 5.74345 17.4774 5.83521 17.2205C5.93264 16.9524 6.04971 16.7669 6.18998 16.6632C6.33025 16.5601 6.5441 16.5078 6.83113 16.5078C7.11839 16.5078 7.29384 16.5582 7.35877 16.6576C7.42365 16.7577 7.40939 16.9371 7.3157 17.1975ZM4.87045 17.1975C4.7753 17.4609 4.65794 17.646 4.51674 17.7512C4.37647 17.857 4.16262 17.9098 3.87565 17.9098C3.58745 17.9098 3.41293 17.8591 3.34888 17.7569C3.28424 17.6556 3.2985 17.4774 3.39102 17.2205C3.48739 16.9524 3.60668 16.7669 3.74783 16.6632C3.88903 16.5601 4.10253 16.5078 4.38582 16.5078C4.67688 16.5078 4.85438 16.5582 4.91662 16.6576C4.97939 16.7577 4.96408 16.9371 4.87045 17.1975ZM6.18057 23.1456C6.01908 23.594 5.80839 23.9951 5.54971 24.3491C5.29237 24.7043 4.99289 25.0038 4.65034 25.2481C4.30867 25.4936 3.92801 25.6796 3.50925 25.8083C3.08955 25.9362 2.63818 25.9999 2.15355 25.9999C1.69837 25.9999 1.31012 25.943 0.989659 25.8274C0.669027 25.713 0.425952 25.5383 0.259733 25.3045C0.0947407 25.0705 0.00894305 24.7806 0.00134512 24.4311C-0.00537613 24.083 0.0758034 23.6754 0.243484 23.2076L1.84647 18.758C1.86073 18.7199 1.88359 18.6865 1.9169 18.6561C1.94951 18.6266 1.99896 18.6016 2.06389 18.5826C2.12795 18.5643 2.20907 18.5489 2.30632 18.5378C2.40358 18.5262 2.52462 18.5202 2.67073 18.5202C2.81299 18.5202 2.92824 18.5262 3.01702 18.5378C3.1058 18.5488 3.17535 18.5643 3.22509 18.5826C3.27348 18.6016 3.30522 18.6266 3.31831 18.6561C3.33169 18.6866 3.33169 18.7199 3.31831 18.758L1.76249 23.077C1.65769 23.3679 1.60211 23.62 1.59656 23.8318C1.59077 24.0457 1.62888 24.2213 1.71094 24.3607C1.79387 24.501 1.91409 24.6051 2.0733 24.6744C2.2328 24.7442 2.42655 24.7794 2.65437 24.7794C2.88523 24.7794 3.1058 24.7434 3.31369 24.6715C3.52275 24.6003 3.71821 24.4941 3.89172 24.3575C4.06741 24.22 4.22661 24.0511 4.36887 23.8488C4.51002 23.6473 4.62737 23.4185 4.71989 23.1616L6.30552 18.758C6.31996 18.7199 6.34276 18.6865 6.37595 18.6561C6.40962 18.6266 6.45707 18.6016 6.51996 18.5826C6.58314 18.5643 6.66426 18.5489 6.76327 18.5378C6.86158 18.5262 6.98268 18.5202 7.12382 18.5202C7.2659 18.5202 7.38075 18.5262 7.46842 18.5378C7.55509 18.5488 7.62371 18.5643 7.67245 18.5826C7.72225 18.6016 7.75182 18.6266 7.76316 18.6561C7.77479 18.6866 7.77479 18.7199 7.76035 18.758L6.18057 23.1456ZM12.5227 20.5951C12.5751 20.4479 12.5998 20.3174 12.597 20.2C12.5949 20.0823 12.5626 19.9863 12.5006 19.9089C12.4386 19.8317 12.3478 19.7724 12.2267 19.7303C12.1047 19.6893 11.9311 19.6683 11.7031 19.6683H10.9588L10.275 21.5674H11.0972C11.3099 21.5674 11.4883 21.5426 11.6335 21.4911C11.7794 21.4404 11.9092 21.371 12.0245 21.2822C12.1396 21.1945 12.2409 21.0899 12.3249 20.972C12.4072 20.8557 12.4737 20.7289 12.5227 20.5951ZM11.769 23.7275C11.829 23.5577 11.8569 23.4069 11.8479 23.2722C11.8403 23.1388 11.7986 23.027 11.7241 22.9363C11.6479 22.8458 11.535 22.7758 11.3843 22.7272C11.2337 22.6774 11.0248 22.6539 10.7567 22.6539H9.88368L9.13488 24.7335H10.1977C10.4029 24.7335 10.5822 24.7127 10.7379 24.6694C10.8913 24.6271 11.0376 24.5621 11.1718 24.4766C11.3042 24.3917 11.4224 24.2859 11.5265 24.1599C11.6296 24.0338 11.7099 23.89 11.769 23.7275ZM13.3144 23.6769C13.2207 23.9364 13.1005 24.1721 12.9526 24.3843C12.8059 24.5941 12.6409 24.7812 12.4576 24.9436C12.2743 25.1047 12.0737 25.2449 11.8595 25.3617C11.6434 25.4789 11.4166 25.5752 11.1822 25.6495C10.9444 25.7258 10.7005 25.7817 10.4532 25.8166C10.2043 25.8529 9.93336 25.8703 9.64242 25.8703H7.71804C7.59495 25.8703 7.50436 25.8339 7.44609 25.7594C7.38911 25.6867 7.39086 25.5676 7.44995 25.4006L9.74733 19.0232C9.80735 18.8578 9.89228 18.7386 10.0029 18.6641C10.1136 18.5908 10.2302 18.5544 10.353 18.5544H12.1714C12.6149 18.5544 12.9776 18.5916 13.2579 18.6671C13.5385 18.7424 13.7569 18.856 13.9125 19.0098C14.068 19.1614 14.1595 19.3551 14.1872 19.589C14.216 19.823 14.173 20.0977 14.0586 20.4144C13.9952 20.5901 13.9119 20.758 13.8102 20.9148C13.7105 21.0694 13.5938 21.2125 13.4623 21.3412C13.3286 21.47 13.1815 21.584 13.0234 21.6811C12.863 21.7794 12.6912 21.8576 12.5101 21.9177C12.7011 21.9558 12.866 22.0217 13.0064 22.1162C13.1455 22.211 13.2524 22.332 13.3278 22.481C13.4031 22.6299 13.4422 22.8042 13.445 23.0039C13.4471 23.2036 13.404 23.4277 13.3144 23.6769ZM18.7259 25.2884C18.6869 25.3971 18.6487 25.489 18.6133 25.5622C18.5771 25.6358 18.5425 25.6948 18.5066 25.7396C18.4721 25.7857 18.4368 25.8182 18.4014 25.839C18.3664 25.8601 18.3318 25.8706 18.2977 25.8706H14.6607C14.5387 25.8706 14.4482 25.8334 14.3908 25.7597C14.3326 25.6862 14.3335 25.567 14.3935 25.401L16.6908 19.0236C16.75 18.8573 16.836 18.738 16.9455 18.6647C17.0561 18.5912 17.1737 18.5539 17.2966 18.5539H20.9106C20.9447 18.5539 20.9706 18.5643 20.9895 18.5825C21.0098 18.6015 21.0192 18.6352 21.0223 18.6808C21.0241 18.7285 21.0155 18.7895 20.9985 18.862C20.9811 18.9365 20.9525 19.0292 20.9115 19.1418C20.8734 19.2478 20.8361 19.3376 20.8008 19.4112C20.7645 19.4842 20.7304 19.5435 20.6949 19.5893C20.6595 19.6344 20.6254 19.6669 20.5919 19.6877C20.5586 19.7085 20.525 19.7193 20.4906 19.7193H17.9062L17.2633 21.5057H19.4508C19.4845 21.5057 19.511 21.5165 19.5319 21.5364C19.5521 21.5573 19.5643 21.59 19.5674 21.6326C19.5701 21.6767 19.5625 21.7348 19.5454 21.8085C19.528 21.8821 19.5014 21.9708 19.4633 22.0766C19.4231 22.1863 19.3858 22.276 19.3507 22.3479C19.3163 22.4194 19.2819 22.4775 19.2467 22.5204C19.2132 22.5635 19.1781 22.5948 19.1436 22.6142C19.1082 22.633 19.075 22.6428 19.0406 22.6428H16.854L16.1108 24.7059H18.7173C18.7513 24.7059 18.7782 24.7165 18.7993 24.7367C18.8194 24.7575 18.8307 24.79 18.8325 24.8356C18.8355 24.8806 18.8279 24.9408 18.8105 25.014C18.7927 25.0869 18.7649 25.1793 18.7259 25.2884ZM25.6285 20.7137C25.7153 20.4733 25.7354 20.2688 25.6867 20.1037C25.6381 19.9377 25.5025 19.8212 25.2804 19.7527C25.2136 19.7336 25.1343 19.7193 25.0427 19.7076C24.9522 19.6964 24.8223 19.6906 24.6545 19.6906H23.9942L23.2473 21.7655H23.9973C24.2063 21.7655 24.3968 21.7407 24.5725 21.6892C24.7479 21.6385 24.9036 21.5667 25.041 21.4743C25.1771 21.3848 25.2971 21.2727 25.3957 21.143C25.4938 21.0153 25.5714 20.8722 25.6285 20.7137ZM25.7373 25.6779C25.7219 25.7198 25.7019 25.755 25.6772 25.7827C25.6521 25.8105 25.6085 25.8343 25.5455 25.8536C25.4826 25.8724 25.3965 25.8858 25.285 25.8936C25.1742 25.9002 25.0257 25.9041 24.8383 25.9041C24.6822 25.9041 24.5581 25.9002 24.4675 25.8936C24.3778 25.8858 24.3092 25.8715 24.2623 25.8504C24.2155 25.8304 24.1868 25.803 24.1756 25.7714C24.1649 25.7399 24.1613 25.7009 24.1622 25.6557L24.102 24.0217C24.0895 23.8366 24.0726 23.6724 24.0496 23.5293C24.0258 23.386 23.9856 23.2668 23.9303 23.1706C23.873 23.0741 23.7929 23.0026 23.6919 22.9536C23.5906 22.9042 23.46 22.8794 23.3046 22.8794H22.8455L21.8411 25.6661C21.8276 25.7045 21.803 25.7389 21.7684 25.7683C21.7331 25.7987 21.6846 25.8226 21.6215 25.842C21.5595 25.861 21.4794 25.8762 21.3811 25.8876C21.2839 25.8983 21.1628 25.9039 21.0176 25.9039C20.8755 25.9039 20.7592 25.8983 20.6686 25.8876C20.5769 25.8762 20.5073 25.861 20.4585 25.842C20.4081 25.8226 20.3785 25.7987 20.3671 25.7683C20.3557 25.7389 20.3566 25.7045 20.3701 25.6661L22.7626 19.0233C22.8227 18.8573 22.9077 18.738 23.0185 18.6644C23.1279 18.5912 23.2455 18.5539 23.3683 18.5539H25.2431C25.4329 18.5539 25.5884 18.5587 25.7086 18.5661C25.8173 18.5721 25.9258 18.5814 26.034 18.5941C26.3106 18.635 26.5462 18.7076 26.7429 18.8087C26.9393 18.9106 27.089 19.0435 27.1922 19.2077C27.2953 19.3719 27.3495 19.5655 27.3553 19.789C27.3599 20.014 27.3096 20.2708 27.2056 20.5607C27.1168 20.8072 27.006 21.0295 26.8716 21.2319C26.7396 21.4305 26.5833 21.6117 26.4062 21.7713C26.2295 21.9297 26.0331 22.0672 25.8154 22.1845C25.598 22.301 25.3643 22.3955 25.1142 22.4669C25.2023 22.5182 25.2819 22.583 25.3499 22.6589C25.4186 22.7343 25.4749 22.8258 25.5198 22.9337C25.5656 23.0406 25.6009 23.1637 25.6256 23.3001C25.6503 23.4388 25.6675 23.5942 25.6762 23.768L25.7668 25.2091C25.7704 25.3513 25.7704 25.4562 25.7649 25.5219C25.7601 25.5881 25.7507 25.6405 25.7373 25.6779ZM34.8869 25.4913C34.8327 25.5822 34.7752 25.6545 34.7152 25.7092C34.657 25.7634 34.5834 25.8054 34.4946 25.8331C34.4059 25.862 34.2982 25.8807 34.1723 25.8903C34.0463 25.9002 33.8871 25.9046 33.6974 25.9046C33.4844 25.9046 33.3155 25.9002 33.1908 25.8903C33.0657 25.8808 32.9702 25.862 32.9062 25.8331C32.8415 25.8053 32.8022 25.7634 32.7882 25.7092C32.7748 25.6545 32.7748 25.5822 32.7882 25.4913L33.3002 20.8558H33.2891L30.5222 25.4913C30.4725 25.5783 30.421 25.6498 30.3677 25.7031C30.3142 25.7588 30.2457 25.8006 30.1627 25.83C30.0785 25.8607 29.9727 25.8807 29.8439 25.8902C29.7161 25.9001 29.549 25.9046 29.3441 25.9046C29.1284 25.9046 28.9568 25.9001 28.8316 25.8902C28.7059 25.8807 28.6114 25.8619 28.5474 25.833C28.4827 25.8052 28.4434 25.7633 28.4303 25.7091C28.416 25.6544 28.4138 25.5822 28.4245 25.4912L29.0786 19.109C29.0941 18.9729 29.113 18.8656 29.1378 18.7894C29.1619 18.7121 29.2038 18.6523 29.2669 18.6108C29.3278 18.57 29.4136 18.5441 29.5234 18.5346C29.6322 18.5253 29.783 18.5202 29.9727 18.5202C30.1483 18.5202 30.2857 18.5229 30.3869 18.5288C30.4869 18.5346 30.5595 18.5479 30.6052 18.5678C30.6491 18.5899 30.6739 18.6194 30.6788 18.6596C30.6837 18.6987 30.6779 18.7541 30.6634 18.8256L29.9145 24.4283H29.9212L33.2452 18.8646C33.2851 18.7944 33.3262 18.735 33.3671 18.6903C33.4074 18.6454 33.4608 18.6099 33.5276 18.5861C33.5944 18.5613 33.6791 18.5441 33.784 18.5346C33.8882 18.5253 34.0235 18.5202 34.1917 18.5202C34.3709 18.5202 34.5122 18.524 34.6161 18.5318C34.7199 18.5396 34.7956 18.5557 34.8449 18.5795C34.8937 18.6042 34.9225 18.6396 34.9328 18.6844C34.9424 18.7294 34.9414 18.7901 34.9289 18.8646L34.2908 24.4283H34.3024L37.5839 18.8417C37.6167 18.7827 37.6499 18.7311 37.6852 18.687C37.7185 18.6444 37.7663 18.6099 37.8274 18.586C37.8883 18.5612 37.9695 18.544 38.0699 18.5345C38.1699 18.5252 38.3071 18.5201 38.4837 18.5201C38.6469 18.5201 38.773 18.5252 38.8617 18.5345C38.9491 18.544 39.0065 18.5699 39.0334 18.6108C39.058 18.6522 39.0541 18.7139 39.0198 18.7952C38.9845 18.8754 38.9254 18.986 38.8414 19.1254L34.8869 25.4913ZM42.4757 25.2884C42.4428 25.3815 42.4053 25.4729 42.3633 25.5622C42.327 25.6358 42.2924 25.6948 42.2562 25.7396C42.222 25.7857 42.1866 25.8182 42.1512 25.839C42.1162 25.8601 42.0817 25.8706 42.0473 25.8706H38.4107C38.2886 25.8706 38.198 25.8334 38.1398 25.7597C38.0825 25.6862 38.0834 25.567 38.1435 25.401L40.4408 19.0236C40.4998 18.8573 40.5859 18.738 40.6954 18.6647C40.8062 18.5912 40.9236 18.5539 41.0464 18.5539H44.6605C44.6947 18.5539 44.7206 18.5643 44.7396 18.5825C44.7597 18.6015 44.7699 18.6352 44.7722 18.6808C44.7731 18.7285 44.7655 18.7895 44.748 18.862C44.731 18.9365 44.7023 19.0292 44.6614 19.1418C44.6295 19.2337 44.5923 19.3237 44.5498 19.4112C44.5152 19.4842 44.4803 19.5435 44.4448 19.5893C44.4095 19.6344 44.375 19.6669 44.3417 19.6877C44.3086 19.7085 44.274 19.7193 44.2405 19.7193H41.6561L41.0123 21.5057H43.1998C43.2343 21.5057 43.26 21.5165 43.2819 21.5364C43.302 21.5573 43.3133 21.59 43.3164 21.6326C43.32 21.6767 43.3124 21.7348 43.2953 21.8085C43.278 21.8821 43.2514 21.9708 43.2132 22.0766C43.173 22.1863 43.1358 22.276 43.1008 22.3479C43.0654 22.4194 43.031 22.4775 42.9966 22.5204C42.9623 22.5635 42.9291 22.5948 42.8936 22.6142C42.8583 22.633 42.8241 22.6428 42.7905 22.6428H40.6031L39.8597 24.7059H42.4663C42.5004 24.7059 42.5272 24.7165 42.5484 24.7367C42.5682 24.7575 42.5798 24.79 42.5824 24.8356C42.5856 24.8806 42.5778 24.9408 42.5606 25.014C42.5435 25.0869 42.5148 25.1793 42.4757 25.2884ZM45.5968 25.6668C45.5834 25.7049 45.5595 25.7386 45.5241 25.769C45.4888 25.7985 45.4403 25.8232 45.3771 25.8414C45.3143 25.8605 45.2351 25.8757 45.1369 25.8873C45.0395 25.8986 44.9185 25.9046 44.7736 25.9046C44.6315 25.9046 44.515 25.8986 44.4243 25.8873C44.3329 25.8757 44.2631 25.8605 44.2136 25.8414C44.1638 25.8231 44.1324 25.7985 44.1199 25.769C44.1056 25.7386 44.1065 25.7049 44.1199 25.6668L46.6082 18.7574C46.6221 18.7204 46.6463 18.6861 46.6814 18.6564C46.7167 18.626 46.7674 18.6021 46.8312 18.5831C46.8961 18.5637 46.9763 18.5485 47.0745 18.5371C47.1719 18.5265 47.2912 18.5202 47.4333 18.5202C47.5781 18.5202 47.6956 18.5265 47.7852 18.5371C47.874 18.5485 47.9435 18.5637 47.9923 18.5831C48.0421 18.6021 48.0735 18.626 48.0869 18.6564C48.1 18.6861 48.1 18.7204 48.0857 18.7574L45.5968 25.6668ZM52.7624 23.6769C52.6229 24.0615 52.4302 24.3986 52.1851 24.6889C51.938 24.98 51.6596 25.2213 51.3466 25.4151C51.0344 25.6096 50.6977 25.7559 50.3382 25.8539C49.9818 25.9509 49.6141 26 49.2448 26C48.995 26 48.7698 25.9789 48.5704 25.938C48.3709 25.8969 48.1991 25.8473 48.0562 25.789C47.9139 25.7299 47.7987 25.6689 47.7119 25.6049C47.6249 25.5411 47.5647 25.4844 47.5352 25.4349C47.5047 25.3864 47.4943 25.3158 47.5077 25.2231C47.5199 25.1305 47.5572 24.9979 47.6203 24.8241C47.6621 24.7076 47.7011 24.6093 47.7375 24.5309C47.7736 24.4511 47.8091 24.387 47.8435 24.3384C47.8778 24.2886 47.9122 24.2541 47.9485 24.2344C47.9835 24.2133 48.0199 24.2025 48.057 24.2025C48.1094 24.2025 48.1717 24.2344 48.2448 24.2955C48.3175 24.3583 48.4148 24.4273 48.5371 24.5026C48.6592 24.5771 48.8129 24.6465 48.9968 24.7085C49.181 24.7707 49.4101 24.8023 49.6818 24.8023C49.8611 24.8023 50.0289 24.7803 50.1866 24.7362C50.3449 24.6933 50.4861 24.6322 50.6139 24.5529C50.7402 24.4743 50.8524 24.375 50.9457 24.2591C51.0403 24.1422 51.1145 24.0102 51.1654 23.8687C51.2256 23.7024 51.2312 23.5615 51.1843 23.4423C51.1377 23.3228 51.0595 23.2177 50.9489 23.1262C50.8382 23.0326 50.7064 22.9469 50.5539 22.8654C50.3949 22.7818 50.237 22.696 50.0804 22.608C49.9205 22.5186 49.7686 22.4155 49.6266 22.2996C49.4862 22.1865 49.37 22.0463 49.285 21.8872C49.199 21.7272 49.1514 21.538 49.1398 21.3186C49.1295 21.1007 49.1791 20.8385 49.2898 20.5331C49.4156 20.1827 49.5902 19.8745 49.8155 19.6082C50.0396 19.3426 50.2925 19.1224 50.574 18.9475C50.8552 18.7721 51.1596 18.6412 51.4878 18.5544C51.8106 18.4683 52.1432 18.4246 52.4773 18.4246C52.649 18.4246 52.8149 18.438 52.978 18.4639C53.1404 18.4904 53.287 18.5259 53.4205 18.5718C53.5524 18.6165 53.6668 18.6671 53.7623 18.7244C53.8577 18.7807 53.9177 18.8275 53.9407 18.8646C53.9645 18.9028 53.9779 18.9353 53.9814 18.9618C53.9855 18.9877 53.9837 19.0232 53.9779 19.0657C53.972 19.1099 53.9587 19.1641 53.9378 19.23C53.9124 19.3128 53.885 19.395 53.8557 19.4765C53.8155 19.5852 53.7792 19.6778 53.7469 19.7521C53.7134 19.8283 53.6828 19.8906 53.6523 19.9391C53.6211 19.9881 53.5897 20.0244 53.5568 20.0473C53.5246 20.0693 53.4864 20.0808 53.4474 20.0804C53.4063 20.0804 53.3501 20.0548 53.2794 20.0023C53.2099 19.949 53.1202 19.8915 53.0113 19.8295C52.9036 19.7664 52.7727 19.7103 52.6194 19.6597C52.4666 19.6081 52.2872 19.5833 52.0822 19.5833C51.9218 19.5833 51.774 19.6034 51.6415 19.6428C51.507 19.6827 51.3877 19.7369 51.2828 19.8066C51.1779 19.8763 51.087 19.9603 51.0138 20.0584C50.9402 20.1524 50.8823 20.2575 50.842 20.3698C50.7838 20.5313 50.7771 20.6722 50.8219 20.7905C50.8668 20.9088 50.9457 21.0149 51.0605 21.1076C51.1738 21.1991 51.3094 21.2861 51.4677 21.3672C51.6281 21.4502 51.7871 21.5358 51.9447 21.624C52.1061 21.7147 52.2601 21.8177 52.4055 21.9322C52.5504 22.0478 52.6669 22.1851 52.7548 22.3454C52.8426 22.5058 52.8912 22.6938 52.9037 22.9104C52.9149 23.1271 52.8674 23.3831 52.7624 23.6769ZM60.4641 23.1456C60.3018 23.594 60.0919 23.9951 59.8346 24.3491C59.5759 24.7043 59.2764 25.0038 58.9339 25.2481C58.5922 25.4936 58.2126 25.6796 57.793 25.8083C57.3733 25.9362 56.9219 25.9999 56.4363 25.9999C55.9822 25.9999 55.5939 25.943 55.2733 25.8274C54.9528 25.713 54.7096 25.5383 54.5433 25.3045C54.3783 25.0705 54.2919 24.7806 54.2861 24.4311C54.2784 24.083 54.3595 23.6754 54.5273 23.2076L56.1301 18.758C56.1435 18.7199 56.1664 18.6865 56.2006 18.6561C56.2341 18.6266 56.2826 18.6016 56.3466 18.5826C56.4116 18.5643 56.4927 18.5489 56.59 18.5378C56.6883 18.5262 56.8093 18.5202 56.9545 18.5202C57.0967 18.5202 57.2119 18.5262 57.3007 18.5378C57.3894 18.5488 57.459 18.5643 57.5088 18.5826C57.5573 18.6016 57.5885 18.6266 57.6011 18.6561C57.6155 18.6866 57.6155 18.7199 57.6011 18.758L56.0462 23.077C55.9412 23.3679 55.8858 23.62 55.8801 23.8318C55.8745 24.0457 55.9127 24.2213 55.9947 24.3607C56.0767 24.501 56.1979 24.6051 56.357 24.6744C56.5165 24.7442 56.7102 24.7794 56.938 24.7794C57.168 24.7794 57.3885 24.7434 57.5974 24.6715C57.8064 24.6002 58.0019 24.494 58.1754 24.3575C58.352 24.22 58.5113 24.0511 58.6525 23.8488C58.7936 23.6473 58.9112 23.4185 59.0035 23.1616L60.5902 18.758C60.6036 18.7199 60.6265 18.6865 60.6597 18.6561C60.6932 18.6266 60.7409 18.6016 60.8036 18.5826C60.8667 18.5643 60.9479 18.5489 61.047 18.5378C61.1461 18.5262 61.2663 18.5202 61.4074 18.5202C61.5497 18.5202 61.6644 18.5262 61.7522 18.5378C61.8387 18.5488 61.9074 18.5643 61.9562 18.5826C62.006 18.6016 62.0354 18.6266 62.0468 18.6561C62.0593 18.6866 62.0583 18.7199 62.045 18.758L60.4641 23.1456ZM67.7219 25.35C67.6905 25.437 67.6485 25.5142 67.5932 25.5819C67.542 25.6471 67.4811 25.7042 67.4127 25.7511C67.3475 25.7962 67.2749 25.8297 67.1982 25.8501C67.1208 25.8712 67.0484 25.8817 66.9768 25.8817H66.3501C66.2195 25.8817 66.1115 25.8682 66.0257 25.8417C65.9419 25.8171 65.868 25.7666 65.8147 25.6974C65.7596 25.6286 65.7165 25.5345 65.6842 25.415C65.6528 25.2967 65.624 25.1429 65.5991 24.9549L65.0288 21.5335C64.996 21.315 64.969 21.0957 64.9477 20.8758C64.9243 20.6473 64.9099 20.418 64.9046 20.1883H64.8933C64.8105 20.4599 64.7243 20.7304 64.6347 20.9997C64.5411 21.2789 64.4444 21.5571 64.3446 21.8342L62.966 25.6615C62.9528 25.6987 62.9299 25.7327 62.8991 25.7633C62.8678 25.7928 62.8228 25.8179 62.7646 25.8387C62.7075 25.8596 62.6333 25.876 62.5445 25.8873C62.4538 25.8989 62.3413 25.9046 62.2068 25.9046C62.0768 25.9046 61.971 25.8989 61.8889 25.8873C61.8079 25.876 61.746 25.8596 61.7047 25.8387C61.6639 25.8179 61.6401 25.7928 61.6316 25.7633C61.624 25.7327 61.6267 25.6987 61.6401 25.6615L64.0088 19.0861C64.0728 18.9088 64.1711 18.7759 64.3056 18.6871C64.4401 18.5995 64.5831 18.5548 64.732 18.5548H65.521C65.6622 18.5548 65.7775 18.5661 65.8654 18.5909C65.9532 18.6155 66.0257 18.6567 66.0819 18.713C66.1375 18.7693 66.1811 18.8477 66.2128 18.9478C66.2433 19.0471 66.2681 19.1701 66.2864 19.3183L66.7326 21.9915C66.7567 22.1538 66.7804 22.313 66.8042 22.4697C66.8281 22.6261 66.85 22.7827 66.868 22.9394C66.8863 23.0949 66.9034 23.2484 66.9195 23.4003C66.937 23.5503 66.9513 23.7008 66.9644 23.8516H66.9693C67.0532 23.5884 67.1437 23.3134 67.2411 23.0261C67.3348 22.7524 67.4306 22.4795 67.5284 22.2072L68.7649 18.7751C68.7783 18.7369 68.802 18.7035 68.8353 18.6728C68.868 18.6434 68.9145 18.6168 68.9756 18.5939C69.0365 18.5718 69.111 18.5558 69.1998 18.5459C69.2894 18.5364 69.4011 18.5316 69.5356 18.5316C69.6615 18.5316 69.7664 18.5364 69.8485 18.5459C69.9315 18.5558 69.9916 18.5718 70.0298 18.5939C70.0688 18.6168 70.0916 18.6434 70.0993 18.6728C70.1081 18.7035 70.1041 18.7369 70.0907 18.7751L67.7219 25.35ZM77.6758 19.6906C77.6368 19.8007 77.598 19.894 77.5593 19.9732C77.5218 20.0522 77.4858 20.1165 77.4533 20.163C77.4188 20.2102 77.3866 20.2432 77.355 20.2625C77.3238 20.2804 77.2919 20.29 77.2588 20.29C77.21 20.29 77.1444 20.2557 77.0596 20.1881C76.9765 20.1213 76.8588 20.0477 76.7093 19.9675C76.5586 19.8894 76.3707 19.8151 76.1481 19.747C75.9242 19.6791 75.6484 19.646 75.3194 19.646C74.9721 19.6453 74.6276 19.7074 74.3025 19.8293C73.9751 19.9515 73.6707 20.125 73.3875 20.3493C73.1049 20.5734 72.8531 20.8437 72.6329 21.1577C72.4114 21.4726 72.2312 21.8201 72.0939 22.2007C71.9433 22.6196 71.8658 22.9883 71.8613 23.307C71.8563 23.6247 71.9146 23.892 72.0348 24.1059C72.1549 24.3214 72.3343 24.4829 72.5729 24.5929C72.8113 24.7022 73.0983 24.7571 73.4341 24.7571C73.5973 24.7571 73.7681 24.7377 73.9419 24.7004C74.1169 24.6621 74.2874 24.6052 74.4503 24.5306L75.0606 22.8345H73.6899C73.6232 22.8345 73.586 22.7927 73.5792 22.7066C73.5716 22.622 73.6057 22.4787 73.6793 22.2742C73.7174 22.1693 73.7536 22.0805 73.7891 22.009C73.8234 21.9367 73.8586 21.88 73.8921 21.8362C73.9275 21.7934 73.9608 21.7608 73.9943 21.7408C74.0276 21.72 74.0621 21.7092 74.0953 21.7092H76.5407C76.5997 21.7092 76.6491 21.72 76.6884 21.7408C76.7275 21.7608 76.757 21.7912 76.7781 21.8335C76.7989 21.8755 76.8076 21.925 76.8046 21.9831C76.8028 22.0415 76.7885 22.1083 76.7617 22.1845L75.7127 25.0955C75.6722 25.209 75.6162 25.3086 75.5475 25.3923C75.4768 25.4772 75.3727 25.544 75.2333 25.5937C75.0953 25.6423 74.9262 25.693 74.7288 25.7463C74.5287 25.7991 74.3267 25.8443 74.1232 25.8818C73.9202 25.9184 73.7159 25.9466 73.5107 25.9661C73.3084 25.9849 73.1081 25.9948 72.9096 25.9948C72.3316 25.9948 71.8439 25.9104 71.448 25.7435C71.0511 25.5746 70.7516 25.3323 70.5494 25.0143C70.3471 24.6958 70.2449 24.3072 70.242 23.8489C70.2391 23.3909 70.3424 22.8715 70.5511 22.2913C70.7667 21.6918 71.0502 21.1545 71.4003 20.6774C71.7513 20.2 72.1509 19.7954 72.5994 19.4613C73.0489 19.1276 73.5362 18.8725 74.0648 18.6951C74.5935 18.5185 75.1419 18.4297 75.7133 18.4297C76.0263 18.4297 76.3039 18.4517 76.5452 18.4956C76.7868 18.5384 76.9925 18.5912 77.1626 18.6529C77.3324 18.7149 77.4676 18.7828 77.5689 18.8534C77.6689 18.9261 77.7357 18.9872 77.7673 19.0406C77.7989 19.093 77.8084 19.1675 77.7958 19.2636C77.7834 19.3606 77.7435 19.5027 77.6758 19.6906Z" fill="#677E98"/>
</svg>
