<svg width="107" height="35" viewBox="0 0 107 35" fill="none" xmlns="http://www.w3.org/2000/svg">
<path d="M15.2189 17.5145C15.2189 17.5145 14.2884 16.0847 13.6738 15.0873C13.022 14.015 13.748 12.4163 15.2189 12.4163C16.6891 12.4163 17.4151 14.0158 16.7641 15.0873C16.1685 16.0847 15.2189 17.5145 15.2189 17.5145Z" fill="#677E98"/>
<path fill-rule="evenodd" clip-rule="evenodd" d="M30.1843 25.322C30.1843 25.7734 29.8675 26.3194 29.4772 26.5452L15.8154 34.5217C15.4243 34.7473 14.7916 34.7473 14.4005 34.5217L0.738644 26.5452C0.347619 26.3194 0.0316162 25.7741 0.0316162 25.322V9.36892C0.0316162 8.91756 0.348359 8.37151 0.738644 8.14573L14.4005 0.169193C14.7916 -0.0563977 15.4243 -0.0563977 15.8154 0.169193L29.4772 8.14573C29.8682 8.37151 30.1843 8.91681 30.1843 9.36892V25.322ZM22.2363 17.3845L18.6624 22.6693L16.8384 19.8475L18.9414 16.6685C19.3324 16.104 20.1697 14.5428 19.202 12.417C18.4199 10.6861 16.7262 9.85839 15.2371 9.85839C13.748 9.85839 12.1285 10.6295 11.2541 12.417C10.2674 14.4677 11.1237 16.0664 11.4958 16.6127C11.4958 16.6127 11.9987 17.3552 12.618 18.2799C12.9442 18.767 13.3025 19.3046 13.6367 19.8107L15.2189 22.1245L17.6015 25.8122C17.6205 25.8314 17.9925 26.4143 18.6624 26.4143C19.2237 26.4143 19.5947 25.9558 19.7105 25.8126C19.7253 25.7943 19.736 25.7812 19.7423 25.7749L25.3259 17.4218H22.2363V17.3845ZM8.29477 17.5335L11.7944 22.5002L13.135 20.6008L14.7172 22.9522L12.8742 25.7932C12.8182 25.868 12.4461 26.4326 11.7944 26.4326C11.1427 26.4326 10.7524 25.849 10.6963 25.7741L4.5724 16.6119C4.20033 16.0657 3.344 14.4669 4.33068 12.4163C5.20514 10.6287 6.82465 9.85764 8.31373 9.85764C8.87229 9.85764 9.48607 9.9893 10.0446 10.2339L8.81614 12.5104C8.6487 12.4545 8.48117 12.4355 8.29477 12.4355C6.82391 12.4355 6.09792 14.0341 6.74963 15.1065C7.36415 16.104 8.29477 17.5335 8.29477 17.5335Z" fill="#677E98"/>
<path d="M106.032 10.5163H93.8028V13.4695H98.1951V26.0931H101.657V13.4695H106.031L106.032 10.5163Z" fill="#677E98"/>
<path d="M50.4725 10.5163H38.2255V13.4695H42.6178V26.0931H46.0795V13.4695H50.4718L50.4725 10.5163Z" fill="#677E98"/>
<path d="M85.8738 10.0274C82.0211 10.0274 79.8802 12.5104 79.8802 16.104V26.0938H83.3048V16.0291C83.3048 14.4679 84.2172 13.2639 85.9109 13.2639C87.6047 13.2639 88.4981 14.6935 88.4981 16.0291V26.0938H91.9227V16.104C91.9416 12.5104 89.7265 10.0274 85.8738 10.0274Z" fill="#677E98"/>
<path d="M72.9568 10.5163V26.0931H76.3814V10.5163H72.9568Z" fill="#677E98"/>
<path d="M61.3426 16.6868L61.454 17.383L64.6739 26.0931H66.0698L70.4439 10.5163H67.0747L64.9899 18.7001L64.8596 19.5844L64.6921 18.7001L61.9003 10.5163H60.7833L57.9915 18.7001L57.824 19.5844L57.7126 18.7001L55.6279 10.5163H52.2405L56.6146 26.0931H58.0105L61.2304 17.383L61.3426 16.6868Z" fill="#677E98"/>
</svg>
