<svg width="61" height="21" viewBox="0 0 61 21" fill="none" xmlns="http://www.w3.org/2000/svg">
<path d="M44.3463 1.16971C43.3716 0.777981 41.8257 0.345459 39.9142 0.345459C35.0344 0.345459 31.598 2.98165 31.577 6.7506C31.5364 9.53133 34.0373 11.0758 35.9077 12.003C37.8195 12.9504 38.4694 13.5688 38.4694 14.4133C38.4499 15.7104 36.9245 16.3082 35.5018 16.3082C33.529 16.3082 32.4719 16 30.8655 15.2784L30.2148 14.9691L29.5233 19.3151C30.6823 19.85 32.8175 20.3247 35.0344 20.3455C40.2193 20.3455 43.5948 17.7501 43.6348 13.7336C43.6545 11.5297 42.334 9.84094 39.487 8.46098C37.7587 7.57513 36.7003 6.97782 36.7003 6.07144C36.7205 5.24746 37.5955 4.40349 39.5464 4.40349C41.1529 4.36216 42.3332 4.75334 43.2273 5.1448L43.6742 5.35039L44.3463 1.16971Z" fill="#677E98"/>
<path d="M26.4332 20.0569H21.4917L24.5824 0.696345H29.5237L26.4332 20.0569Z" fill="#677E98"/>
<path fill-rule="evenodd" clip-rule="evenodd" d="M53.1913 0.696345H57.0135L61 20.0566H56.4247C56.4247 20.0566 55.977 17.8321 55.8351 17.1524H49.4907C49.3072 17.6671 48.4536 20.0566 48.4536 20.0566H43.2687L50.6086 2.3027C51.1171 1.04619 52.0126 0.696345 53.1913 0.696345ZM52.8868 7.78121C52.8868 7.78121 51.3209 12.0859 50.9139 13.1981H55.0212C54.818 12.2302 53.8823 7.59588 53.8823 7.59588L53.5369 5.92766C53.3918 6.35643 53.182 6.94561 53.0401 7.34393L53.0394 7.34611C52.9432 7.61616 52.8785 7.79791 52.8868 7.78121Z" fill="#677E98"/>
<path d="M17.3647 0.696345L12.5254 13.8984L11.9966 11.2208L11.9958 11.218L10.2682 2.32377C9.98364 1.08726 9.10923 0.737133 8.03161 0.696345H0.0813344L0 1.08753C1.9391 1.58988 3.67344 2.31376 5.19308 3.21383L9.59735 20.0363H14.8228L22.5898 0.696345H17.3647Z" fill="#677E98"/>
</svg>
