<svg width="30" height="30" viewBox="0 0 30 30" fill="none" xmlns="http://www.w3.org/2000/svg">
<path d="M15 26C21.0751 26 26 21.0751 26 15C26 8.92487 21.0751 4 15 4C8.92487 4 4 8.92487 4 15C4 21.0751 8.92487 26 15 26Z" fill="#F0F0F0"/>
<path d="M6.2732 8.30298C5.40914 9.42717 4.75761 10.7229 4.37823 12.1305H10.1007L6.2732 8.30298Z" fill="#0052B4"/>
<path d="M25.6213 12.1305C25.2419 10.7229 24.5903 9.42717 23.7263 8.30298L19.8989 12.1305H25.6213Z" fill="#0052B4"/>
<path d="M4.37823 17.8696C4.75765 19.2772 5.40918 20.5729 6.2732 21.6971L10.1006 17.8696H4.37823Z" fill="#0052B4"/>
<path d="M21.6968 6.27391C20.5726 5.40986 19.2769 4.75832 17.8693 4.37891V10.1014L21.6968 6.27391Z" fill="#0052B4"/>
<path d="M8.30267 23.7261C9.42686 24.5901 10.7226 25.2417 12.1302 25.6211V19.8987L8.30267 23.7261Z" fill="#0052B4"/>
<path d="M12.1301 4.37891C10.7225 4.75832 9.42682 5.40986 8.30267 6.27387L12.1301 10.1013V4.37891Z" fill="#0052B4"/>
<path d="M17.8693 25.6211C19.2769 25.2417 20.5726 24.5901 21.6968 23.7261L17.8693 19.8987V25.6211Z" fill="#0052B4"/>
<path d="M19.8989 17.8696L23.7263 21.6971C24.5903 20.573 25.2419 19.2772 25.6213 17.8696H19.8989Z" fill="#0052B4"/>
<path d="M25.9069 13.5652H16.4349H16.4348V4.09311C15.9651 4.03197 15.4863 4 15 4C14.5136 4 14.0349 4.03197 13.5652 4.09311V13.5651V13.5652H4.09311C4.03197 14.0349 4 14.5137 4 15C4 15.4864 4.03197 15.9651 4.09311 16.4348H13.5651H13.5652V25.9069C14.0349 25.968 14.5136 26 15 26C15.4863 26 15.9651 25.9681 16.4348 25.9069V16.4349V16.4348H25.9069C25.968 15.9651 26 15.4864 26 15C26 14.5137 25.968 14.0349 25.9069 13.5652Z" fill="#D80027"/>
<path d="M17.8686 17.8697L22.7772 22.7783C23.0029 22.5526 23.2183 22.3166 23.4238 22.0721L19.2213 17.8696H17.8686V17.8697Z" fill="#D80027"/>
<path d="M12.1294 17.8696H12.1293L7.22076 22.7782C7.44644 23.0039 7.68238 23.2193 7.92695 23.4248L12.1294 19.2222V17.8696Z" fill="#D80027"/>
<path d="M12.1295 12.1306V12.1305L7.22087 7.22192C6.99512 7.4476 6.77976 7.68354 6.57428 7.92812L10.7768 12.1306H12.1295V12.1306Z" fill="#D80027"/>
<path d="M17.8686 12.1304L22.7772 7.22175C22.5515 6.99599 22.3156 6.78063 22.071 6.5752L17.8686 10.7777V12.1304V12.1304Z" fill="#D80027"/>
<circle cx="15" cy="15" r="14" stroke="#BEBEBE" stroke-width="2"/>
</svg>
