<svg width="19" height="19" viewBox="0 0 19 19" fill="none" xmlns="http://www.w3.org/2000/svg">
<path d="M9.49996 0C4.25325 0 0 4.25325 0 9.50031C0 14.7468 4.25325 19 9.49996 19C14.7467 19 19 14.7468 19 9.50031C19 4.25325 14.7467 0 9.49996 0ZM9.49755 4.03783C10.293 4.03783 10.9383 4.68285 10.9383 5.47854C10.9383 6.27434 10.293 6.91929 9.49755 6.91929C8.70178 6.91929 8.05648 6.27434 8.05648 5.47854C8.05644 4.68285 8.70178 4.03783 9.49755 4.03783ZM11.9724 14.8535C11.9724 14.9975 11.8557 15.1142 11.712 15.1142H7.28335C7.13962 15.1142 7.02297 14.9975 7.02297 14.8535V14.319C7.02297 14.1751 7.13958 14.0584 7.28335 14.0584H8.12073V8.98885H7.2576C7.11387 8.98885 6.99714 8.87212 6.99714 8.72812V8.19301C6.99714 8.04904 7.11387 7.93235 7.2576 7.93235H10.622C10.7656 7.93235 10.8824 8.04904 10.8824 8.19301V14.0584H11.712C11.8557 14.0584 11.9724 14.1751 11.9724 14.319L11.9724 14.8535Z" fill="#FAFAFA"/>
</svg>
