<svg width="22" height="15" viewBox="0 0 22 15" fill="none" xmlns="http://www.w3.org/2000/svg">
<path fill-rule="evenodd" clip-rule="evenodd" d="M0 2C0 0.89543 0.895431 0 2 0H20C21.1046 0 22 0.895431 22 2V13C22 14.1046 21.1046 15 20 15H2C0.89543 15 0 14.1046 0 13V2ZM2 1H20C20.0772 1 20.1523 1.00874 20.2244 1.02528L11 9.32726L1.77559 1.02528C1.84773 1.00874 1.92284 1 2 1ZM1.04245 1.71082C1.01484 1.80237 1 1.89945 1 2V13C1 13.0515 1.00389 13.102 1.01139 13.1514L6.14656 6.30452L1.04245 1.71082ZM6.89283 6.97617L1.66743 13.9434C1.77147 13.98 1.88341 14 2 14H20C20.1166 14 20.2285 13.98 20.3326 13.9434L15.1072 6.97618L11.3345 10.3716C11.1443 10.5427 10.8557 10.5427 10.6655 10.3716L6.89283 6.97617ZM21 13C21 13.0515 20.9961 13.102 20.9886 13.1514L15.8534 6.30453L20.9576 1.71083C20.9852 1.80238 21 1.89946 21 2V13Z" fill="#E7CF7F"/>
</svg>
