<svg width="16" height="16" viewBox="0 0 16 16" fill="none" xmlns="http://www.w3.org/2000/svg">
<path fill-rule="evenodd" clip-rule="evenodd" d="M9.41263 10.9356C8.4438 11.6068 7.26782 12 6 12C2.68629 12 0 9.31371 0 6C0 2.68629 2.68629 0 6 0C9.31371 0 12 2.68629 12 6C12 7.26782 11.6068 8.4438 10.9356 9.41263L15.6846 14.1616C16.1051 14.5821 16.1051 15.264 15.6846 15.6846C15.264 16.1051 14.5821 16.1051 14.1616 15.6846L9.41263 10.9356ZM10 6C10 8.20914 8.20914 10 6 10C3.79086 10 2 8.20914 2 6C2 3.79086 3.79086 2 6 2C8.20914 2 10 3.79086 10 6Z" fill="#BEBEBE"/>
</svg>
