<svg width="30" height="30" viewBox="0 0 30 30" fill="none" xmlns="http://www.w3.org/2000/svg">
<path fill-rule="evenodd" clip-rule="evenodd" d="M6.07824 27.0595C2.39044 24.3267 0 19.9425 0 15C0 6.71573 6.71573 0 15 0C23.2843 0 30 6.71573 30 15C30 19.9425 27.6096 24.3267 23.9218 27.0595C23.7463 27.1895 23.5679 27.3158 23.3866 27.4382C20.9926 29.0556 18.1066 30 15 30C11.6582 30 8.57168 28.9072 6.07824 27.0595ZM15.3355 27.9958C15.224 27.9986 15.1122 28 15 28C14.8677 28 14.7358 27.998 14.6044 27.9941C12.1771 27.9216 9.917 27.1836 8.00019 25.9565C8.02724 22.8741 10.9252 20 15 20C19.0748 20 21.9728 22.8741 21.9998 25.9565C20.0672 27.1937 17.7856 27.9337 15.3355 27.9958ZM23.8473 24.525C23.3029 21.9286 21.3477 19.7733 18.7156 18.7114C20.107 17.6126 21 15.9106 21 14C21 10.6863 18.3137 8 15 8C11.6863 8 9 10.6863 9 14C9 15.9106 9.89302 17.6126 11.2844 18.7114C8.6523 19.7733 6.69707 21.9286 6.15265 24.525C3.59817 22.1512 2 18.7622 2 15C2 7.8203 7.8203 2 15 2C22.1797 2 28 7.8203 28 15C28 18.7622 26.4018 22.1512 23.8473 24.525ZM15 18C17.2091 18 19 16.2091 19 14C19 11.7909 17.2091 10 15 10C12.7909 10 11 11.7909 11 14C11 16.2091 12.7909 18 15 18Z" fill="#BEBEBE"/>
</svg>
